<svg xmlns="http://www.w3.org/2000/svg" width="24.091" height="24" viewBox="0 0 24.091 24">
    <defs>
        <style>
            .cls-1{fill:#fff;stroke-width:2px;stroke:#7a869a}.cls-2{stroke:#7a869a;fill:#7a869a}.cls-3{stroke:none}.cls-4{fill:none}
        </style>
    </defs>
    <g id="noun_Compare_2462801" transform="translate(1.063 1)">
        <path id="Path_7434" d="M22.277 24.035c.1 0 .192 0 .287-.008a4.644 4.644 0 0 0 3.56-2.013 4.855 4.855 0 0 0 .657-4.224L23 5.532a.758.758 0 0 0-1.447 0l-.437 1.418-2.77.65a2.685 2.685 0 0 0-5.029 1.188l-2.592.612-.28-.906A.758.758 0 0 0 9 8.5L5.218 20.755a4.855 4.855 0 0 0 .657 4.224 4.644 4.644 0 0 0 3.56 2.013c.095.005.19.008.286.008s.191 0 .287-.008a4.644 4.644 0 0 0 3.56-2.013 4.854 4.854 0 0 0 .658-4.224l-3.068-9.948 2.494-.588a2.685 2.685 0 0 0 5.029-1.188l1.933-.456-2.841 9.215a4.854 4.854 0 0 0 .658 4.224 4.644 4.644 0 0 0 3.56 2.013q.142.008.286.008zm-8.05-3.281c.019.063-2.724-.064-9.008 0 .015-.063 9.007.001 9.007.001zm3.546-2.964h9.008c.019.063-9.028.063-9.008 0z" class="cls-1" data-name="Path 7434" transform="translate(-4.999 -5)"/>
        <g id="Ellipse_108" class="cls-2" data-name="Ellipse 108" transform="translate(9.917 2.917)">
            <circle cx="1" cy="1" r="1" class="cls-3"/>
            <circle cx="1" cy="1" r=".5" class="cls-4"/>
        </g>
    </g>
</svg>
