<svg height="180" viewBox="0 0 450 180" width="450" xmlns="http://www.w3.org/2000/svg"><g fill="none" fill-rule="evenodd"><g fill="#005291" transform="translate(-.679544 38.099631)"><path d="m209.371089 19.4179946-1.714023-14.99134379c-15.78915-5.2693814-41.370272-8.08095292-54.955136 4.8026383-18.605316 16.98055839-12.484621 59.96167079 24.724111 60.78217549 18.726931.7019669 26.559749-3.9821335 36.230104-6.793705-.980527-.9371905-2.204286-2.3411241-2.449418-3.5135384l.123516-16.3952773c.121616-1.8743811 1.100243-2.9282573 2.447518-4.3340431h-15.055655c1.468891 1.5224715 2.449418 2.3429763 2.571034 4.5674146l.245132 18.6215679c-24.847627 8.1976387-43.329427 1.0538763-47.245836-17.5676916-3.671276-25.7634781 5.875563-38.99712668 26.804881-40.05285512 14.075128-.23337155 22.643341 4.8026383 28.273772 14.87465802z"/><path d="m272.103935.11853793.237531 7.89018094c-1.658915-1.41319438-3.673177-3.29683617-6.278415-3.29683617l-20.725992.11668577v23.91132303h20.135015c.946323 0 1.894546-.942747 2.485523-1.7669561v11.424093c-.590977-.7056711-1.894546-2.2374034-2.605238-2.2374034h-20.0153v28.9751151h22.858069c3.31593.2352237 6.631861-3.8876736 8.290776-5.1823301l-1.894546 10.1294365h-40.861006c.592877-.5889853 2.132077-2.8263887 2.132077-4.8285684v-60.42470963c0-2.70785082-1.183854-4.00435943-2.132077-4.82856847z"/><path d="m355.574175 0-29.748363 66.2145466c-.361047 1.2891-1.324472 2.6948857-3.733985 3.6320762l14.814324.118538c-1.565804-1.0557285-1.926851-1.992919-1.926851-3.0486474l6.985308-17.4602666h24.56829l8.070348 16.9916713c.361047 1.5243237-.84371 2.4615142-3.251322 3.6339284l19.148786-.1166857c-1.807134-.9390427-3.011891-1.5243237-4.456078-3.7506142 0 0-30.350742-65.9793229-30.470457-66.2145466zm-1.085041 18.2826235-10.356345 23.5557092 20.473259.1166857s-9.995298-23.6723949-10.116914-23.6723949z"/><path d="m47.9964328 70.0818465c.6023782-.5889853 2.1700818-2.8263887 2.1700818-4.8285684v-30.3883096h-37.6248859v30.3883096c0 2.0021797 1.447988 4.2395831 2.0503662 4.8285684h-14.5919949c.60237823-.5889853 2.05036626-2.8263887 2.05036626-4.8285684v-60.42470963c.11971555-2.70785082-1.2066567-4.00435943-2.05036626-4.82856847h14.5919949c-.8437095.82420904-2.1700818 2.12071765-2.0503662 4.82856847v23.79278503h37.6248859v-23.79278503c0-2.70785082-1.2066567-4.00435943-2.1700818-4.82856847h14.7117105c-.9653254.82420904-2.1700818 2.12071765-2.1700818 4.82856847v60.42470963c0 2.0021797 1.5677036 4.2395831 2.1700818 4.8285684z" transform="translate(1.553376)"/><path d="m335.264337 103.720688c.106414-.242632.530169-.970529.530169-1.576184v-9.697884h-10.303138v9.697884c0 .605655.423755 1.333552.636583 1.576184h-4.036124c.212827-.242632.636583-.970529.636583-1.576184v-19.2735261c0-.8482871-.423756-1.3335518-.636583-1.5761841h4.036124c-.317341.2426323-.636583.727897-.636583 1.5761841v7.5160455h10.303138v-7.5160455c0-.8482871-.319241-1.3335518-.530169-1.5761841h3.929711c-.212828.2426323-.532069.727897-.532069 1.5761841v19.2735261c0 .605655.425655 1.333552.532069 1.576184z"/><path d="m381.886892 81.2947938c6.424734 0 11.464189 4.9841495 11.464189 11.2129473s-5.039455 11.2129469-11.464189 11.2129469c-6.299318 0-11.338773-4.9841491-11.338773-11.2129469s5.039455-11.2129473 11.338773-11.2129473zm0 2.6170952c4.408572 0 8.062747 3.8617435 8.062747 8.5958521 0 4.858203-3.654175 8.7217989-8.062747 8.7217989-4.283156 0-7.937331-3.8635959-7.937331-8.7217989 0-4.7341086 3.654175-8.5958521 7.937331-8.5958521z"/><path d="m3.8479997 1.65212239h2.57673462l7.19053378 15.27287141 6.4399363-15.27287141h4.0798298c-.4294558.36302241-.7524977.72789698-.7524977 1.33355171 0 0 1.3966813 15.758136 1.9325509 19.2735265.1121146.7297491.6441837 1.2131616 1.2883673 1.8188163h-6.3335224c.5377698-.6056547 1.1819534-1.0131288 1.1819534-1.6965741 0-2.626356-1.1819534-14.06156187-1.1819534-14.06156187l-6.6508637 15.51550367-7.08411997-15.39511358s-1.68171839 11.35371108-1.82613714 13.94117178c-.0323042.6112112.42945577 1.0909194.9672256 1.5761841h-4.72591371c.64418366-.3648746.9710261-.9538599 1.07363943-1.5761841.57197427-3.5153904 2.36200673-19.51801094 2.36200673-19.51801094 0-.24263232-.10831407-.84828706-.53776984-1.21130947z" transform="translate(342.436532 79.642671)"/><path d="m0 70.0818465c.75059747-.5889853 2.70025065-2.8263887 2.70025065-4.8285684v-60.42470963c0-2.70785082-1.49929469-4.00435943-2.70025065-4.82856847h15.9715741c-1.200956.82420904-2.7002507 2.12071765-2.7002507 4.82856847v60.42470963c0 2.0021797 1.9496532 4.2395831 2.7002507 4.8285684z" transform="translate(291.454118 .038549)"/></g><path d="m23.9222065 43.47749c-9.3093089-7.2845262-17.42716305-17.0953921-20.61957762-37.98770214-.3534459-1.97624954-1.76912974-3.84322193-3.30262888-5.48978786l17.1060214.10927715c-1.6513145 1.64656593-3.3026289 3.18385471-3.3026289 5.71019433.5890765 7.13635382 1.3149708 18.48080412 15.1715702 31.65333152.6099792.5778724 2.0579672 1.7595474 2.0579672 1.7595474l-4.7943226 5.7842805s-1.4099831-.8316177-2.3164008-1.5391409z" fill="#e33e3c" transform="translate(74.772317 38.099631)"/><g transform="translate(93.774785 38.099631)"><path d="m9.97439528 39.991734c-11.05373544 9.8442046-12.55683064 22.8926376-3.19431482 34.0389073 2.07316922 2.4689228 3.19431482 3.545025 3.78529154 4.6063099 1.3016691 2.0225534 2.1301766 4.4933284 1.894546 7.8642507 2.8636719-1.9762495 3.7510872-7.6586615.8266074-11.7963761-6.52354716-9.2292891-11.42428357-18.3085537 1.5391999-28.6454315 9.5810442-7.6419922 19.4034197-17.5250921 22.7174501-40.44180773.3534459-2.02255342 1.8926457-3.93212538 3.3121301-5.61758657l-17.1554278.11298146c1.6551149 1.68360903 3.4299454 3.25794091 3.4299454 5.84169735-.7087921 7.30119559-3.0365944 21.46462599-17.15542782 34.03705519z" fill="#18bc2b"/><path d="m10.1422055.26826891c.0754067.088198.1508135.1984455.1885168.25724416 3.1293794 4.6487695 4.8260309 9.81202733 4.6752174 14.42404763-.2639235 8.8859483-8.21933379 13.5420677-10.59464586 19.5836306-1.39502455 3.4764711-1.01799089 5.9680645.49014376 10.6793076-5.91942849-4.18573-4.86373423-11.4363405-3.58181978-14.9164865 1.92287167-5.1338585 7.4652665-8.3383857 7.50296986-16.0520357 0-3.7851641-1.47043128-6.48990268-3.77033661-9.48495971.98028752-1.05102614 2.14909187-2.11675196 3.46870968-3.19350252.56555049-.42261541 1.09339762-.85625557 1.62124475-1.29724556z" fill="#e33e3c" transform="translate(6.302165 44.493236)"/></g></g></svg>