<?xml version="1.0" encoding="UTF-8"?>
<svg width="175px" height="515.5px" viewBox="0 440 175 515.5" version="1.1" xmlns="http://www.w3.org/2000/svg" xmlns:xlink="http://www.w3.org/1999/xlink">
    <!-- Generator: Sketch 59.1 (86144) - https://sketch.com -->
    <title>icons_bu (1)</title>
    <desc>Created with Sketch.</desc>
    <g id="Page-1" stroke="none" stroke-width="1" fill="none" fill-rule="evenodd">
     <g id="Group_5015" transform="translate(0.000000, 442.000000)" fill="#253858" fill-rule="nonzero" stroke-width="0.5">
                <g id="Group_5014-2" stroke="#253858">
                    <path d="M8.595,12.255 C9.43,16.436 12.16,19.236 15.418,19.236 C18.676,19.236 21.395,16.446 22.235,12.278 C22.8010297,11.6970158 23.1098339,10.9129342 23.092,10.102 C23.273,8.664 23.025,7.681 22.408,7.34 C22.7247828,5.47532137 22.2303326,3.56410222 21.049,2.087 C19.497,0.24 16.891,-0.439 14.004,0.287 C12.5160197,0.127715062 11.0407982,0.684402407 10.029,1.787 C8.77213064,3.33914048 8.20131875,5.33607946 8.448,7.318 C7.818,7.656 7.548,8.663 7.729,10.088 C7.72438778,10.8955589 8.03509327,11.6730402 8.595,12.255 L8.595,12.255 Z M10.446,2.169 C11.2390254,1.29809787 12.368302,0.810323249 13.546,0.83 C13.696,0.83 13.846,0.837 14.002,0.852 C14.0355383,0.855749358 14.0694844,0.85303367 14.102,0.844 C16.823,0.152 19.187,0.744 20.62,2.452 C21.7206082,3.83986233 22.1626668,5.63802947 21.831,7.378 L21.631,7.56 L21.2,6.854 C21.1240292,6.72972856 20.9663602,6.68307584 20.835,6.746 C19.5686918,7.16566614 18.2124072,7.23477619 16.91,6.946 C15.8664466,6.78242083 14.8419683,6.51440822 13.852,6.146 C13.100107,5.83997825 12.3046824,5.65436791 11.495,5.596 C10.3836777,5.63770979 9.43958814,6.42212505 9.195,7.507 L9.026,7.368 C8.76835225,5.51372662 9.28152857,3.63485076 10.446,2.169 L10.446,2.169 Z M8.702,7.834 L9.171,8.219 C9.24826821,8.28196655 9.35289047,8.29981682 9.44666586,8.26603311 C9.54044125,8.2322494 9.60964173,8.1517774 9.629,8.054 C9.644,7.974 10.044,6.111 11.464,6.154 C12.2177105,6.21081804 12.9577736,6.38596292 13.657,6.673 C14.6795915,7.05326123 15.7379564,7.32932729 16.816,7.497 C18.1477092,7.7615561 19.5229239,7.70983569 20.831,7.346 L21.316,8.146 C21.3594065,8.21802698 21.4327904,8.26682729 21.516,8.279 C21.5296452,8.28008342 21.5433548,8.28008342 21.557,8.279 C21.6271773,8.27897724 21.6948612,8.25297239 21.747,8.206 L22.147,7.849 C22.516,8.084 22.672,8.92 22.532,10.027 C22.432,10.836 22.277,11.616 21.848,11.849 C21.7723512,11.8903974 21.7197053,11.964028 21.705,12.049 C20.947,16.008 18.422,18.669 15.421,18.669 C12.42,18.669 9.886,16 9.131,12.028 C9.11674178,11.9434087 9.06488335,11.8698506 8.99,11.828 C8.547,11.584 8.39,10.772 8.29,10.011 C8.152,8.903 8.318,8.064 8.702,7.834 L8.702,7.834 Z" id="Path_7549-2"></path>
                    <path d="M29.783,29.94 C29.383,24.892 25.911,21.011 20.483,19.522 C20.4645192,19.5137506 20.4450099,19.5080324 20.425,19.505 C20.385,19.494 20.348,19.48 20.308,19.47 C20.1791825,19.434119 20.0430707,19.4950332 19.984,19.615 C19.0419893,21.2656105 17.3001955,22.2979957 15.4,22.332 L15.4,22.332 C13.4836195,22.256777 11.7254249,21.2482523 10.693,19.632 C10.693,19.627 10.683,19.626 10.68,19.621 C10.650239,19.5766187 10.6081924,19.5418694 10.559,19.521 L10.541,19.521 C10.5160906,19.5106365 10.4898228,19.5039012 10.463,19.501 C10.434958,19.4993458 10.4068466,19.5027328 10.38,19.511 L10.374,19.511 L10.368,19.511 L10.344,19.518 C4.915,21.005 1.436,24.9 1.036,29.946 L0.997,30.522 C0.98501539,30.7246946 1.0579941,30.9232226 1.19840622,31.0698964 C1.33881834,31.2165701 1.53397557,31.2981355 1.737,31.295 C6.20555652,31.782441 10.6979667,32.0184795 15.193,32.002 L15.637,32.002 C20.1277093,32.0184771 24.6157928,31.7824379 29.08,31.295 C29.2862032,31.2970728 29.4837672,31.2123095 29.6243553,31.0614484 C29.7649434,30.9105873 29.8355862,30.7075455 29.819,30.502 L29.783,29.94 Z M20.124,20.45 L20.317,24.06 L16.667,22.76 C18.0610917,22.4347657 19.2893874,21.6137694 20.123,20.45 L20.124,20.45 Z M15.413,31.433 L15.399,31.433 L12.145,24.133 C12.1354913,24.1160911 12.1240842,24.1003224 12.111,24.086 L15.411,22.909 L18.711,24.086 C18.6980237,24.1004099 18.6866256,24.1161662 18.677,24.133 L15.422,31.433 L15.413,31.433 Z M14.155,22.761 L10.507,24.061 L10.692,20.591 C11.5758194,21.6755318 12.792681,22.4382671 14.154,22.761 L14.155,22.761 Z M1.567,30.539 L1.605,29.985 C1.977,25.299 5.162,21.656 10.147,20.167 L9.918,24.456 C9.91360527,24.5338799 9.94143672,24.610139 9.99496263,24.6668803 C10.0484885,24.7236215 10.1229964,24.7558492 10.201,24.756 C10.2350288,24.7567892 10.2689163,24.7513672 10.301,24.74 L11.604,24.272 C11.6051697,24.3063965 11.6126259,24.3402884 11.626,24.372 L14.776,31.4332946 C10.4450898,31.4379522 6.11719653,31.2042646 1.812,30.733 C1.567,30.698 1.567,30.642 1.566,30.539 L1.567,30.539 Z M29.011,30.73 C24.7061313,31.2011815 20.3785754,31.4348688 16.048,31.430285 L19.198,24.369 C19.2117891,24.3374218 19.219263,24.3034496 19.22,24.269 L20.528,24.735 C20.6172792,24.7669783 20.716641,24.7521131 20.7926523,24.6954062 C20.8686636,24.6386994 20.9112192,24.5476897 20.906,24.453 L20.677,20.166 C25.665,21.656 28.847,25.29 29.219,29.981 L29.257,30.517 C29.256,30.642 29.256,30.698 29.01,30.73 L29.011,30.73 Z" id="Path_7550-2"></path>
                </g>
                <path d="M56.162,29.971 C55.881,26.256 54.944,23.946 53.071,22.291 C53.320964,18.975163 53.3002287,15.6444678 53.009,12.332 C52.291,4.371 48.763,0 43.112,0 C37.368,0 34.027,4.152 33.212,12.332 C32.9173576,15.6443065 32.8966205,18.9752818 33.15,22.291 C31.28,23.945 30.343,26.256 30.031,30 L30,30.564 C29.9897807,30.7602061 30.0610914,30.9519144 30.197052,31.0937452 C30.3330127,31.235576 30.5215373,31.3149216 30.718,31.313 C34.8199505,31.8074858 38.9495175,32.0369619 43.081,32 C47.2121265,32.022239 51.3407721,31.7928141 55.444,31.313 C55.6474893,31.3195816 55.8437613,31.2372426 55.9816487,31.0874484 C56.1195361,30.9376543 56.1853745,30.7352495 56.162,30.533 L56.162,29.971 Z M33.746,12.394 C34.558,4.527 37.68,0.562 43.112,0.562 C50.324,0.562 52.072,7.962 52.447,12.394 C52.697,15.266 52.978,22.103 52.135,23.914 C50.4360465,24.7364033 48.4615473,24.7707742 46.735,24.008 C47.6833792,22.6925021 48.2260169,21.1282038 48.296,19.508 C48.296,19.352808 48.170192,19.227 48.015,19.227 C47.859808,19.227 47.734,19.352808 47.734,19.508 C47.7238153,20.4714813 47.4997531,21.420672 47.078,22.287 C46.7347965,21.0283343 46.6403671,19.7148148 46.8,18.42 C48.4091088,16.8321403 49.479386,14.7793766 49.86,12.551 C50.3785578,11.8196098 50.6618159,10.9475099 50.672,10.051 C50.7463667,10.0561535 50.8209853,10.0455911 50.891,10.02 C51.0404452,9.99656362 51.1450362,9.85974416 51.1284485,9.70938468 C51.1118608,9.5590252 50.9799601,9.44829558 50.829,9.458 C46.864,9.989 43.399,4.182 43.336,4.119 C43.2791793,4.01850497 43.161337,3.96947267 43.05,4 C40.9670559,4.33849765 39.1760915,5.66272363 38.242,7.555 C37.8554199,8.45461977 37.5420695,9.38396949 37.305,10.334 C36.805,12.02 36.431,13.334 35.12,14.455 C35.0014505,14.5596205 34.9877087,14.7395936 35.089,14.861 C35.1446048,14.9230418 35.2247223,14.9574302 35.308,14.955 C35.3741898,14.9485978 35.4380961,14.9274096 35.495,14.893 C35.9369424,14.5177264 36.316353,14.0745181 36.619,13.58 C37.0921273,15.4054964 38.0535358,17.0676512 39.4,18.388 L39.4,18.419 C39.5541787,19.6915848 39.4800161,20.9814719 39.181,22.228 C39.0646045,21.7705141 39.043501,21.293984 39.119,20.828 C39.1449574,20.6813684 39.0471316,20.5414574 38.9005,20.5155 C38.7538684,20.4895426 38.6139574,20.5873684 38.588,20.734 C38.3907144,21.9162991 38.7214726,23.1256679 39.493,24.043 C37.757639,24.7607603 35.8023285,24.7267234 34.093,23.949 C33.9129625,23.4884505 33.797534,23.005199 33.75,22.513 C33.7581979,22.4589755 33.7472307,22.4037855 33.719,22.357 C33.4448373,19.0412679 33.45387,15.7081974 33.746,12.394 L33.746,12.394 Z M40.115,23.883 C39.8338874,23.6006776 39.6017162,23.2735427 39.428,22.915 L39.459,22.884 C39.9595784,21.6044946 40.1418044,20.2225285 39.99,18.857 C40.8815379,19.5597772 41.9770914,19.9542045 43.112,19.981 C44.2198969,19.9675399 45.2935713,19.5952627 46.172,18.92 C46.0165494,20.2652591 46.1990566,21.6280481 46.703,22.885 L46.703,22.885 C46.513727,23.2367146 46.2942339,23.5713078 46.047,23.885 C45.9939446,23.9567889 45.9716369,24.0467393 45.985,24.135 C46.016,24.229 46.047,24.291 46.141,24.322 C46.3712912,24.4373038 46.6116203,24.5313601 46.859,24.603 C45.8485903,25.5844957 44.48948,26.1241107 43.081,26.103 L43.05,26.103 C41.6503223,26.1181694 40.3017509,25.577662 39.3,24.6 C39.5448575,24.5092052 39.7845508,24.4050487 40.018,24.288 C40.110751,24.2548985 40.1730247,24.167476 40.174,24.069 C40.24,24.039 40.209,23.945 40.115,23.883 L40.115,23.883 Z M43.115,19.419 C40.43,19.419 37.933,16.734 37.027,12.863 C37.368912,12.0949778 37.6507567,11.3015998 37.87,10.49 C38.1150541,9.56371378 38.4258421,8.65607912 38.8,7.774 C39.6228643,6.11353971 41.1668373,4.92649287 42.983,4.558 C43.576,5.495 46.511,9.897 50.101,10.021 C50.007,10.77 49.82,11.921 49.477,12.113 C49.4091112,12.1601502 49.3552141,12.2247575 49.321,12.3 C48.513,16.515 45.953,19.419 43.112,19.419 L43.115,19.419 Z M38.744,24.819 C39.866848,26.0202792 41.4396736,26.6990585 43.084,26.692 L43.115,26.692 C44.7780162,26.7052148 46.3717448,26.0267934 47.515,24.819 C48.0353477,24.9583265 48.5689931,25.0421276 49.107,25.069 C47.5308133,26.676864 45.3643308,27.5681796 43.113,27.535 L43.082,27.535 C40.8595529,27.5610947 38.7248522,26.6688621 37.182,25.069 C37.7083274,25.035092 38.2302956,24.9517245 38.741,24.82 L38.744,24.819 Z M55.415,30.751 C51.3341591,31.2456188 47.2255394,31.4751002 43.115,31.438 C39.0048416,31.4594466 34.8972055,31.2300201 30.815,30.751 C30.565,30.72 30.565,30.657 30.565,30.564 L30.593,30 C30.874,26.628 31.654,24.474 33.247,22.913 C33.3071882,23.3461051 33.4336685,23.7673686 33.622,24.162 C33.653,24.193 33.684,24.256 33.716,24.287 C34.5490501,24.7163819 35.4648221,24.9612699 36.401,25.005 C36.4017445,25.0538879 36.424529,25.0998244 36.463,25.13 C38.1226286,27.0040551 40.515926,28.0627132 43.019,28.03 L43.081,28.03 C45.6281978,28.0717498 48.0672796,27.0020732 49.762,25.1 C49.793,25.069 49.793,25.038 49.824,25.006 C50.7572317,24.9812117 51.6694985,24.7237559 52.478,24.257 L52.572,24.163 C52.7558201,23.766641 52.8820948,23.346062 52.947,22.914 C54.508,24.444 55.32,26.598 55.601,29.97 L55.632,30.501 C55.662,30.689 55.662,30.72 55.413,30.751 L55.415,30.751 Z" id="Path_7592" stroke="#253758"></path>
            </g>
    </g>
    </svg>