<?xml version="1.0" encoding="UTF-8"?>
<svg width="175px" height="1579px" viewBox="0 0 175 1579" version="1.1" xmlns="http://www.w3.org/2000/svg" xmlns:xlink="http://www.w3.org/1999/xlink">

    <!-- Generator: Sketch 59.1 (86144) - https://sketch.com -->
    <title>icons_bu (1)</title>
    <desc>Created with Sketch.</desc>
    <defs>
        <path d="M27.929,0.493 C27.929,0.493 28.642,4.378 28.349,5.733 C28.058,7.076 26.042,8.752 25.139,9.121 C24.147,9.524 21.995,10.167 20.869,10.188 C18.602,10.229 17.909,10.238 17.909,10.238 L7.129,10.402 C7.129,10.402 0.92,12.352 0.514,21.409 C0.104,30.462 0.714,40.577 0.54,42.096 C0.365,43.615 0.872,46.386 2.11,47.216 C2.11,47.216 2.351,44.718 6.212,42.834 C10.074,40.949 15.082,39.913 18.329,37.893 C18.329,37.893 20.401,48.545 20.392,50.585 C20.386,52.625 18.972,65.215 23.139,66.631 C23.139,66.631 30.583,71.876 34.572,72.969 C38.56,74.059 47.117,77.695 60.282,71.618 C66.556,68.436 69.701,65.857 71.454,64.532 C73.204,63.207 75.606,62.374 75.05,58.887 C74.496,55.402 73.353,53.747 73.295,51.189 C73.238,48.632 84.71,38.9 84.71,38.9 C84.71,38.9 85.816,38.518 84.552,36.579 C83.287,34.64 74.484,22.54 73.447,20.289 C72.412,18.039 70.095,13.759 66.774,12.506 C65.075,10.723 56.732,4.854 53.494,3.82 C50.258,2.787 47.616,2.311 46.824,1.692 C46.032,1.07 44.967,0.111 43.05,1.079 C41.97,1.625 37.98,1.266 34.321,0.909 C32.018,0.683 29.845,0.457 28.611,0.457 C28.331,0.457 28.101,0.468 27.929,0.494" id="path-1"></path>
        <linearGradient x1="12.215%" y1="16.822%" x2="83.136%" y2="79.075%" id="linearGradient-3">
            <stop stop-color="#9E81FC" offset="0%"></stop>
            <stop stop-color="#ADC0FD" offset="100%"></stop>
        </linearGradient>
        <path d="M8.945,2.71 C8.812,3.276 8.492,3.834 8.359,4.4 C7.789,6.034 7.22,7.667 6.653,9.302 L5.625,12.075 L5.625,12.077 C5.519,12.372 5.441,12.643 5.358,12.923 C5.088,11.311 2.607,9.276 2.498,10.601 C2.46,11.083 2.203,14.973 0.348,16.294 C0.356,16.408 2.624,17.737 3.29,18.096 L3.266,18.136 C4.773,19.013 5.674,19.486 8.869,21.965 C9.033,21.754 9.094,21.056 9.118,20.792 C8.104,19.034 9.074,17.167 8.808,15.369 C9.036,15.057 9.081,15.197 9.439,14.093 L9.665,13.45 C9.845,13.26 10.241,11.68 10.42,11.492 C10.614,10.58 11.228,9.93 11.42,9.02 C11.789,8.285 11.935,7.596 12.1,6.549 C12.1,6.289 12.274,6.058 12.276,5.795 C12.276,5.795 12.472,4.806 12.475,4.804 C12.714,3.872 12.878,2.872 13.24,1.158 L9.44,0.48 C9.402,1.278 9.148,2.013 8.945,2.71" id="path-4"></path>
        <linearGradient x1="49.995%" y1="100.001%" x2="49.995%" y2="-0.001%" id="linearGradient-6">
            <stop stop-color="#5B9CFC" offset="0%"></stop>
            <stop stop-color="#92BCFC" offset="100%"></stop>
        </linearGradient>
        <path d="M48.572,4.98 C48.4959741,4.91056586 48.4158285,4.84578151 48.332,4.786 C47.843,4.907 47.602,5.273 47.432,5.699 C42.121,8.278 36.727,10.625 30.837,11.599 C30.425,11.836 29.97,11.815 29.515,11.793 C29.021,11.772 28.528,11.748 28.088,12.053 C27.9145231,12.0266696 27.7374734,12.0365435 27.568,12.082 C22,11.735 16.51,11.066 11.538,8.246 C9.068,6.512 6.742,4.464 3.452,4.505 C2.408,5.789 2.54,7.327 2.52,8.83 C2.5,9.452 2.602,9.946 2.792,10.353 C2.219,12.606 1.955,14.916 1.667,17.222 C1.45318349,17.3680683 1.26696661,17.5508994 1.117,17.762 C0.321,19.324 -0.082,20.89 1.052,22.477 C6.752,22.123 12.433,20.933 18.166,22.112 L22.606,24.018 C24.276,25.111 25.529,26.634 26.833,28.105 C26.855,28.267 26.857,28.43 26.84,28.592 C27.883,29.876 28.04,31.541 28.724,32.978 C28.741,33.174 28.76,33.37 28.78,33.565 C29.058,35.375 29.021,37.184 28.804,38.995 C28.784,39.204 28.767,39.41 28.75,39.617 C29.819,40.34 30.628,39.64 31.469,39.12 C31.636,39.083 31.8,39.034 31.959,38.972 L31.959,38.969 C33.697889,39.1624915 35.4541254,38.8146667 36.988,37.973 C40.237,37.173 43.198,35.818 45.633,33.464 C47.998,31.364 50.652,29.512 51.823,26.372 L51.821,26.372 C53.751,24.136 53.961,21.169 55.131,18.614 L55.071,17.029 L55.751,10.437 C55.385,6.973 56.219,3.443 55.143,0.023 C52.394,0.939 50.219,2.611 48.572,4.979 M22.187,16.096 L22.265,16.014 C22.255,16.057 22.254,16.096 22.245,16.137 C22.228,16.121 22.206,16.111 22.187,16.096 M33.635,26.375 C33.687,26.413 33.724,26.456 33.767,26.499 C33.722,26.536 33.677,26.569 33.631,26.603 C33.631,26.527 33.637,26.454 33.637,26.375" id="path-7"></path>
        <linearGradient x1="33.662%" y1="18.24%" x2="75.815%" y2="70.714%" id="linearGradient-9">
            <stop stop-color="#FF7AAC" offset="0%"></stop>
            <stop stop-color="#FFBAD6" offset="100%"></stop>
        </linearGradient>
        <path d="M16.338,2.659 C15.34633,3.55724909 14.3523266,4.45291878 13.356,5.346 C12.5,6.142 11.765,6.896 10.896,7.661 C9.656,8.635 9.254,9.151 7.973,10.317 C7.065,11.305 6.083,12.09 5.728,10.909 C5.584,10.909 5.439,10.913 5.293,10.915 C4.579,11.496 4.383,12.305 4.29,13.155 C2.656,13.368 1.943,14.872 0.878,15.881 C0.878,16.059 0.444,16.266 0.446969195,16.441 C1.369,17.182 0.839,16.769 1.76,17.507 C1.76,17.507 3.45,18.854 3.452,18.854 C3.93,19.189 4.868,19.854 4.896,19.894 C6.692,21.543 6.929,21.773 8.867,24.073 C9.881,22.459 11.093,20.848 12.106,19.237 C12.91,17.991 13.475,17.167 14.298,15.939 C14.863,15.158 15.275,14.499 15.816,13.744 C15.818,13.744 15.818,13.744 15.818,13.747 C16.883,12.275 17.519,11.251 18.53,9.797 L18.53,9.795 L22.383,4.741 L18.621,0.477 C17.86,1.205 17.099,1.932 16.336,2.659" id="path-10"></path>
        <linearGradient x1="24.412%" y1="90.36%" x2="74.365%" y2="-2.5%" id="linearGradient-12">
            <stop stop-color="#5B9CFC" offset="0%"></stop>
            <stop stop-color="#92BCFC" offset="100%"></stop>
        </linearGradient>
        <path d="M2.395,10.038 L5.513,0.056 L7.08,0.488 L7.142,1.052 L6.504,6.022 C6.498,6.387 6.492,6.755 6.483,7.121 L6.485,7.121 C6.445,8.043 6.283,8.646 6.283,9.113 C6.253,9.197 6.127,10.935 6.076,11.014 C6.022,12.28 5.856,13.694 5.802,14.96 C5.828,15.138 5.659,15.64 5.603,15.773 C5.553,15.896 5.3,16.38 4.933,17.023 C4.197,18.316 2.902,19.631 1.061,19.779 C-0.748,17.944 0.237,16.119 1.067,14.295 L2.395,10.038 C2.415,10.031 2.432,10.027 2.449,10.02 L2.395,10.038 Z" id="path-13"></path>
        <linearGradient x1="75.375%" y1="38.525%" x2="75.375%" y2="28.145%" id="linearGradient-15">
            <stop stop-color="#3E80FD" offset="0%"></stop>
            <stop stop-color="#5B9CFC" offset="100%"></stop>
        </linearGradient>
        <path d="M1.184,1.592 C1.184,1.592 4.36,9.728 1.04,14.218 C0.16,15.408 0.107,20.712 2.136,22.506 C2.448,22.784 2.498,23.259 2.679,23.636 C2.935,22.188 4.276,22.119 5.199,22.086 C8.414,21.971 11.667,21.59 14.839,22.536 C14.867,22.356 14.912,22.384 14.908,22.201 L15.022,21.701 C15.787,20.36 15.224,19.415 15.42,18.131 C15.742,16.301 15.738,14.818 15.96,13.168 C15.96,12.249 15.964,11.331 15.968,10.412 C15.981,9.965 16.093,9.214 16.11,8.715 C16.134,7.998 15.582,6.419 15.42,5.451 C15.078,3.621 14.155,2.156 12.65,1.051 C11.565,0.554 10.196,0.375 8.788,0.375 C5.125,0.375 1.184,1.593 1.184,1.593" id="path-16"></path>
        <linearGradient x1="50.001%" y1="-0.002%" x2="50.001%" y2="99.997%" id="linearGradient-18">
            <stop stop-color="#FD89A9" offset="0%"></stop>
            <stop stop-color="#FDB8CA" offset="100%"></stop>
        </linearGradient>
        <path d="M13.65,17.819 L0.508,0.297 L21.57,16.662 C21.57,16.662 14.074,17.647 13.65,17.819 Z" id="path-19"></path>
        <linearGradient x1="67.439%" y1="48.825%" x2="78.831%" y2="48.825%" id="linearGradient-21">
            <stop stop-color="#8489F8" offset="0%"></stop>
            <stop stop-color="#8B9BFB" offset="100%"></stop>
        </linearGradient>
        <path d="M31.938,7.644 L31.348,4.378 C28.519,4.501 21.51,4.978 15.144,3.774 C12.524,3.278 0.384,0.304 0.384,0.304 C11.655,6.54 31.938,7.644 31.938,7.644" id="path-22"></path>
        <linearGradient x1="-0.001%" y1="49.987%" x2="100.001%" y2="49.987%" id="linearGradient-24">
            <stop stop-color="#8489F8" offset="0%"></stop>
            <stop stop-color="#8B9BFB" offset="100%"></stop>
        </linearGradient>
    </defs>
    <g id="Page-1" stroke="none" stroke-width="1" fill="none" fill-rule="evenodd">
        <g id="icons_bu-(1)">

        <g id="group-6-(2)" transform="translate(15.000000, 1411.000000)">
                <path d="M1.206,119.865 C1.185,119.502 1.166,119.138 1.144,118.775 C1.525,108.192 3.787,97.985 7.28,88.02 C8.02,83.907 9.93,80.237 11.844,76.61 C14.244,72.066 16.188,67.336 18.137,62.6 C19.458,57.268 20.004,51.788 21.403,46.458 C23.598,38.1 29.15,33.748 37.374,32.182 C41.256,31.444 45.094,30.473 49.084,31.282 C50.006,31.459 51.02,31.212 51.848,31.857 C53.488,32.922 54.584,34.344 54.799,36.344 C54.752,37.198 54.845,38.121 53.771,38.483 C53.133,38.016 53.245,37.473 53.417,37.103 C53.547,40.233 51.137,41.551 48.581,42.733 C46.147,43.861 43.543,44.45 40.969,45.145 C39.216,45.62 37.34,45.922 36.176,47.578 C32.726,49.794 31.586,53.15 31.502,57.027 C31.416784,57.2883276 31.2808562,57.5302792 31.102,57.739 C29.402,58.408 28.281,57.214 27.018,56.478 C26.235,55.921 25.89,54.959 25.655,54.748 C25.599,54.712 25.75,55.125 25.476,55.667 C22.869,58.795 23.966,62.11 27.891,62.874 C28.441,62.982 28.975,63.014 29.259,63.592 C30.562,68.129 31.987,72.653 30.663,77.451 C28.833,81.325 27.375,85.331 26.523,89.541 C24.739,102.423 28.507,113.418 37.773,122.541 C40.824,125.136 44.017,127.509 47.877,128.812 C51.449,130.116 55.043,131.346 58.797,132.048 C61.892,132.658 64.965,133.405 68.149,133.42 C73.543,134.154 78.914,133.92 84.267,133.024 C89.877,132.493 95.467,131.263 101.133,132.508 C102.907,132.988 104.565,133.748 106.173,134.629 C108.065,135.692 109.645,137.075 110.613,139.063 C110.649,139.352 110.533,139.562 110.287,139.708 C109.821,143.413 109.283,147.044 107.257,150.364 C103.213,156.981 97.06,160.791 90.08,163.398 C80.35,167.029 70.145,168.686 59.864,167.664 C41.842,165.874 25.174,160.315 11.596,147.621 C10.908,146.977 10.906,146.98 10.003,147.381 C8.443,146.044 7.991,143.97 6.703,142.453 C5.085,140.855 4.391,138.753 3.727,136.69 C1.972,131.228 0.331,125.727 1.207,119.865 M54.584,30.045 C53.032,28.998 50.877,29.25 49.342,27.462 L56.142,26.367 C55.019,25.661 54.394,25.27 53.771,24.876 C58.141,24.435 61.737,22.44 65.182,20.081 C67.718,17.884 70.443,16.178 74.022,16.658 C75.326,19.027 76.393,21.542 78.355,23.506 C78.744,23.895 78.83,24.476 78.683,25.046 C77.036,27.47 74.358,28.253 71.857,29.325 C67.117,31.358 62.137,31.661 57.076,31.375 C56.063,31.319 55.043,31.179 54.584,30.045 M66.881,7.698 C67.951,7.801 69.018,7.907 70.087,8.008 C70.897,7.713 71.773,7.646 72.567,7.285 C72.064,7.455 71.607,7.408 71.227,7.001 C70.313,6.674 69.753,5.958 69.083,4.996 C71.549,4.435 74.039,5.138 76.46,4.413 C76.316,3.355 74.522,3.729 74.869,2.557 C75.13,1.67 76.1,1.567 76.872,1.313 C81.072,-0.068 85.334,-0.373 89.562,1.027 C92.744,2.081 95.131,4.114 96.069,7.507 C94.489,7.885 93.509,8.759 93.406,10.492 C93.366,11.198 93.214,11.983 92.248,12.108 C91.7076753,12.0138151 91.2007213,11.7820352 90.776,11.435 C88.068,9.208 85.043,8.576 81.676,9.545 C79.571,9.389 77.862,10.663 75.923,11.119 C72.756,11.865 69.966,11.316 67.546,9.109 C67.138,8.737 66.79,8.315 66.881,7.699" id="Shape" fill="#131B72" fill-rule="nonzero"></path>
                <path d="M92.276,11.839 C93.366,11.216 92.919,10.12 93.04,9.225 C93.304,7.27 94.143,6.476 96.069,7.506 C96.265,7.513 96.461,7.517 96.655,7.524 C97.355,8.894 97.658,10.364 97.757,11.886 C97.364,12.381 97.339,13.037 97.027,13.569 C96.642,14.675 96.86,15.824 96.78,16.953 C96.694,18.48 95.997,19.812 95.437,21.191 C94.454,22.688 93.139,23.869 91.759,24.988 C90.45,25.765 89.047,26.317 87.591,26.754 C86.067,27.1 84.495,26.888 82.961,27.134 C82.6722623,27.144067 82.385017,27.0883278 82.121,26.971 C80.742,25.044 80.802,24.917 83.441,24.125 C88.51,22.606 91.045,19.698 91.498,14.922 C91.6,13.859 91.321,12.691 92.276,11.839" id="Path" fill="#F8DBC5" fill-rule="nonzero"></path>
                <path d="M54.584,30.045 C61.131,32.386 74.089,29.353 78.508,24.445 C79.648,24.244 79.834,24.79 79.41,25.676 C78.965,26.61 78.168,27.242 77.325,27.802 C72.414,31.061 67.039,32.902 61.118,33.07 C59.598,33.038 58.078,33.1 56.558,33.07 C55.03,33.038 53.548,32.786 52.154,32.13 C51.822,31.975 52.225,32.216 51.928,32.007 C51.393,31.633 50.323,31.738 50.345,30.936 C50.368,29.981 51.561,30.672 52.012,30.14 L54.584,30.045" id="Path" fill="#101456" fill-rule="nonzero"></path>
                <path d="M73.961,17.03 C70.609,16.828 68.119,19.093 65.182,20.08 C66.379,17.108 68.642,14.918 70.708,12.584 C71.95,11.714 73.256,11.94 74.574,12.358 C74.451,13.924 74.401,15.503 73.961,17.03" id="Path" fill="#FAD3DD" fill-rule="nonzero"></path>
                <path d="M74.543,12.616 L70.71,12.584 C68.767,11.755 67.03,10.645 65.773,8.914 C65.423,8.432 64.816,7.836 65.437,7.274 C65.631,7.1 66.383,7.539 66.881,7.698 C70.201,11.155 73.998,11.518 78.261,9.604 C79.313,9.133 80.442,8.116 81.771,9.099 C79.974,11.525 77.655,12.879 74.543,12.616" id="Path" fill="#111653" fill-rule="nonzero"></path>
                <path d="M71.227,7 C71.691,7.029 72.618,6.853 72.405,7.423 C72.045,8.38 70.969,8.176 70.087,8.008 C70.396,7.591 71.204,7.738 71.227,7.001" id="Path" fill="#5E5F9A" fill-rule="nonzero"></path>
                <path d="M112.122,32.833 C113.901,34.219 115.578,35.693 116.531,37.807 C117.893,39.577 118.197,41.725 118.09,43.783 C117.936,46.69 118.055,49.596 117.874,52.496 C115.125,53.584 112.995,52.122 110.83,50.792 C110.623,49.611 110.887,48.452 111.011,47.286 C111.648,43.338 111.281,39.343 111.574,35.379 C111.639,34.496 111.337,33.554 112.122,32.833" id="Path" fill="#FEB2C6" fill-rule="nonzero"></path>
                <path d="M145.856,42.796 C146.416,40.692 148.213,41.276 149.642,41.064 C152.182,41.718 154.732,42.329 157.252,43.041 C159.004,43.538 159.702,44.558 158.482,46.249 C155.632,47.656 152.605,47.142 149.616,47.058 C147.702,46.218 146.253,44.969 145.856,42.796" id="Path" fill="#151C72" fill-rule="nonzero"></path>
                <path d="M118.183,39.47 C118.782,40.49 119.363,41.523 119.987,42.53 C121.509,44.995 122.6,47.535 121.498,50.495 C122.453,52.062 121.591,53.096 120.458,54.054 C119.158,54.342 117.943,54.456 117.624,52.703 C116.884,50.145 117.065,47.578 117.301,44.951 C117.516,42.57 117.121,40.154 116.531,37.807 L118.183,39.47" id="Path" fill="#FDB9CB" fill-rule="nonzero"></path>
                <path d="M112.122,32.833 C112.301,37.631 112.486,42.428 111.542,47.18 C110.102,47.03 110.294,45.763 110.093,44.89 C109.457,42.125 108.87,39.35 108.131,36.611 C107.797,35.297 107.646,33.941 107.271,32.635 C106.771,30.875 105.699,29.469 104.471,28.161 C104.156,27.561 103.819,26.959 104.361,26.309 C107.342,28.017 110.063,30.034 112.121,32.833" id="Path" fill="#FEACC2" fill-rule="nonzero"></path>
                <path d="M128.764,37.799 C128.166,36.495 128.474,35.542 129.784,34.858 C132.593,33.384 135.693,33.018 138.744,32.481 C139.399,32.367 140.024,32.685 140.322,33.333 C140.727,34.208 140.335,34.942 139.74,35.557 C138.174,37.172 136.081,37.926 134.13,38.909 C133.49,39.27 132.817,39.07 132.153,39.031 C130.959,38.797 129.702,38.732 128.763,37.799" id="Path" fill="#151D73" fill-rule="nonzero"></path>
                <path d="M104.363,26.309 C104.55,26.842 104.74,27.373 104.93,27.907 C104.79,28.03 104.615,28.215 104.479,28.176 C100.777,27.128 97.183,27.931 93.589,28.78 C92.837,28.505 92.473,27.959 92.455,27.169 C93.04,25.566 94.281,24.392 95.212,23.013 C95.405,22.841 95.629,22.74 95.881,22.701 C96.515,22.744 97.088,22.933 97.528,23.424 C99.827,24.336 102.248,24.96 104.363,26.309" id="Path" fill="#FD9BB5" fill-rule="nonzero"></path>
                <path d="M95.94,23.056 C95.82,23.034 95.702,23.015 95.586,22.991 C94.769,22.684 94.566,22.109 94.859,21.321 C95.307,19.836 95.759,18.353 96.207,16.869 C96.681,15.569 96.657,14.685 96.588,12.876 C97.436,12.64 97.598,12.467 97.757,11.886 C97.813,12.05 97.828,12.216 97.8,12.388 C98.1660783,13.8994028 98.1667639,15.4762794 97.802,16.988 L97.634,19.088 C97.332,20.035 97.511,21.01 97.479,21.972 C97.442,23.047 96.937,23.381 95.939,23.056" id="Path" fill="#141859" fill-rule="nonzero"></path>
                <path d="M95.94,23.056 C98.272,22.486 96.297,20.081 97.634,19.087 C97.6,20.533 97.563,21.978 97.528,23.424 C96.974,23.409 96.353,23.677 95.939,23.056 M97.802,16.987 L97.8,12.386 C98.311,13.92 98.304,15.453 97.802,16.987" id="Shape" fill="#2F317C" fill-rule="nonzero"></path>
                <g id="Group" transform="translate(64.130000, 48.884000)">
                    <g id="Clipped">
                        <g id="Path-Clipped">
                            <mask id="mask-2" fill="white">
                                <use xlink:href="#path-1"></use>
                            </mask>
                            <g id="path-1"></g>
                            <path d="M27.929,0.493 C27.929,0.493 28.642,4.378 28.349,5.733 C28.058,7.076 26.042,8.752 25.139,9.121 C24.147,9.524 21.995,10.167 20.869,10.188 C18.602,10.229 17.909,10.238 17.909,10.238 L7.129,10.402 C7.129,10.402 0.92,12.352 0.514,21.409 C0.104,30.462 0.714,40.577 0.54,42.096 C0.365,43.615 0.872,46.386 2.11,47.216 C2.11,47.216 2.351,44.718 6.212,42.834 C10.074,40.949 15.082,39.913 18.329,37.893 C18.329,37.893 20.401,48.545 20.392,50.585 C20.386,52.625 18.972,65.215 23.139,66.631 C23.139,66.631 30.583,71.876 34.572,72.969 C38.56,74.059 47.117,77.695 60.282,71.618 C66.556,68.436 69.701,65.857 71.454,64.532 C73.204,63.207 75.606,62.374 75.05,58.887 C74.496,55.402 73.353,53.747 73.295,51.189 C73.238,48.632 84.71,38.9 84.71,38.9 C84.71,38.9 85.816,38.518 84.552,36.579 C83.287,34.64 74.484,22.54 73.447,20.289 C72.412,18.039 70.095,13.759 66.774,12.506 C65.075,10.723 56.732,4.854 53.494,3.82 C50.258,2.787 47.616,2.311 46.824,1.692 C46.032,1.07 44.967,0.111 43.05,1.079 C41.97,1.625 37.98,1.266 34.321,0.909 C32.018,0.683 29.845,0.457 28.611,0.457 C28.331,0.457 28.101,0.468 27.929,0.494" id="Path" fill="url(#linearGradient-3)" fill-rule="nonzero" mask="url(#mask-2)"></path>
                        </g>
                    </g>
                </g>
                <path d="M149.105,87.456 C150.865,89.281 152.378,91.208 151.845,93.99 C150.485,96.206 148.183,96.69 145.908,96.987 C134.746,98.443 123.588,98.882 112.45,96.683 C110.387,96.277 108.32,95.769 106.186,95.87 C104.446,95.921 102.703,95.924 100.962,95.836 C98.356,95.579 96.092,94.508 94.055,92.91 C93.261,92.29 92.473,91.67 92.455,90.535 C93.156,88.98 94.935,88.79 95.935,87.785 C94.751,88.555 93.471,89.384 92.089,90.042 C86.496,91.075 83.008,95.326 78.916,98.641 C77.062,100.142 75.266,101.732 73.132,102.821 C69.783,104.529 67.465,103.921 65.294,100.917 C64.848,99.314 64.971,97.733 65.467,96.167 C66.167,93.409 68.274,91.974 70.627,90.817 C72.355,89.967 74.17,89.313 75.982,88.661 C76.482,88.5 76.997,88.391 77.503,88.265 C78.573,87.9 79.548,87.315 80.604,86.92 C84.159,85.612 84.744,81.745 87.076,79.372 C87.609,78.832 86.996,77.987 86.591,77.372 C85.683,75.998 84.842,74.576 83.641,73.424 C81.264,70.438 78.333,68.054 75.244,65.849 C73.2630055,64.0983686 71.6740094,61.9491518 70.581,59.542 C70.175,58.434 70.324,57.36 70.777,56.304 C71.221,55.342 71.959,54.688 72.918,54.266 C74.684,53.651 76.415,52.823 78.377,53.262 C79.741,53.897 81.003,52.962 82.344,52.479 C85.526,51.329 88.76,50.88 92.169,50.624 C94.036,52.58 93.777,55.189 91.515,57.207 C89.37,59.124 86.714,59.77 83.691,60.077 C84.978,62.59 86.55,64.606 87.967,66.716 C89.942,69.183 91.574,71.943 94.348,73.996 C94.982,70.016 94.79,66.066 94.76,62.121 C94.775,58.281 94.728,54.449 94.333,50.627 C94.491,49.501 95.178,48.712 96.226,48.537 C99.906,47.922 103.61,47.335 107.187,49.056 C107.394,49.306 107.53,49.59 107.605,49.904 C107.439,54.925 106.085,59.714 104.714,64.502 C104.416,65.546 104.064,66.576 103.931,67.66 C103.276,70.242 102.817,72.85 102.929,75.525 C102.772,78.27 103.181,80.953 103.889,83.595 C105.736,85.449 108.075,86.346 110.535,87.02 C116.899,88.362 123.21,87.377 129.525,86.596 C131.853,86.357 134.102,85.606 136.452,85.49 C139.244,84.877 142.071,84.752 144.897,85.028 C146.611,85.196 148.42,85.415 149.105,87.456" id="Path" fill="#FEE6D2" fill-rule="nonzero"></path>
                <path d="M106.019,95.098 C110.597,95.132 114.985,96.537 119.521,96.933 C125.634,97.462 131.735,97.608 137.823,96.873 C140.175,96.591 142.53,96.778 144.907,96.365 C147.409,95.93 149.645,95.102 151.846,93.99 C151.843,97.54 148.73,99.013 144.388,99.49 C142.073,99.745 139.671,98.987 137.424,100.073 C133.38,100.73 129.338,100.332 125.299,100.011 C124.495,99.949 123.702,99.693 122.878,99.725 C117.169,99.11 111.65,97.664 106.198,95.915 C105.919,95.691 105.861,95.418 106.018,95.098" id="Path" fill="#F9DCC6" fill-rule="nonzero"></path>
                <path d="M31.105,57.106 C30.631,52.776 31.945,49.323 35.982,47.206 C36.71,46.304 37.797,45.966 38.815,45.696 C43.079,44.571 47.307,43.336 51.468,41.865 C55.963,44.039 57.505,48.062 58.15,52.61 C58.324,53.858 58.23,55.136 58.186,56.4 C57.977,58.152 57.74,59.896 56.266,61.14 C53.219,63.732 49.858,65.696 45.744,65.806 C40.091,65.956 35.532,63.625 31.886,59.391 C31.321,58.737 31.25,57.907 31.106,57.106" id="Path" fill="#FEE6D2" fill-rule="nonzero"></path>
                <path d="M31.105,57.106 C33.871,61.895 38.325,64.39 43.528,65.098 C47.118,65.586 50.758,64.666 53.768,62.205 C54.368,61.715 54.558,60.405 55.818,60.959 C56.651,62.74 55.375,63.922 54.465,65.057 C52.545,67.462 49.957,68.992 47.059,70.005 C43.308,71.135 39.621,70.997 36.006,69.45 C32.944,68.065 30.394,66.094 28.746,63.098 C26.362,64.005 24.788,63.268 23.695,60.729 C22.585,58.145 23.137,56.493 25.457,55.478 C26.057,55.084 26.343,55.616 26.716,55.897 C28.029,56.715 29.016,58.311 30.943,57.65 L31.105,57.106" id="Path" fill="#F9DCC5" fill-rule="nonzero"></path>
                <path d="M25.95,89.466 C26.468,85.249 28.067,81.392 29.896,77.61 C30.258,77.109 30.73,77.12 31.246,77.32 C32.313,77.941 32.701,78.963 32.722,80.1 C32.908,89.797 33.276,99.497 32.476,109.186 C32.423,109.838 32.239,110.442 31.788,110.94 C30.072,111.425 29.898,109.894 29.387,108.988 C25.946,102.894 25.222,96.303 25.95,89.466" id="Path" fill="#5399FE" fill-rule="nonzero"></path>
                <path d="M25.95,89.466 C25.68,97.215 27.1,104.531 31.521,111.077 C33.787,113.119 35.051,116.021 37.441,117.961 C38.002,118.568 38.513,119.203 38.616,120.063 C38.561,121.19 38.466,122.307 37.601,123.172 C27.881,114.25 24.275,103.107 25.581,90.186 C25.607,89.935 25.823,89.704 25.951,89.466" id="Path" fill="#3A7CFC" fill-rule="nonzero"></path>
                <path d="M31.002,77.595 C30.633,77.602 30.265,77.605 29.896,77.61 C31.124,74.153 30.105,70.778 29.531,67.383 C29.288,65.95 28.615,64.597 28.747,63.098 C31.049,65.059 32.92,67.575 35.9,68.672 C37.211,70.485 36.667,72.556 36.722,74.545 C36.752,75.396 36.648,76.218 36.156,76.947 C34.536,77.928 32.821,78.184 31.002,77.595" id="Path" fill="#0B1052" fill-rule="nonzero"></path>
                <path d="M21.2,69.278 C22.408,76.53 19.797,82.887 16.591,88.938 C12.135,97.352 11.598,106.102 13.261,115.21 C13.341,115.638 13.271,116.092 13.12,116.53 C10.425,107.476 10.078,98.544 14.545,89.87 C17.225,84.666 20.032,79.51 20.774,73.574 C20.954,72.146 21.061,70.711 21.201,69.278" id="Path" fill="#0A1053" fill-rule="nonzero"></path>
                <path d="M53.633,38.392 C53.713,40.161 52.183,40.972 51.358,42.202 C46.572,44.902 41.042,45.337 35.982,47.206 C36.579,45.98 36.954,45.599 38.763,45.042 C41.452,44.214 44.228,43.648 46.865,42.688 C49.778,41.63 52.766,40.46 53.202,36.633 C53.87,37.186 53.465,37.853 53.632,38.393" id="Path" fill="#111556" fill-rule="nonzero"></path>
                <path d="M30.943,57.65 C31.256,58.657 30.993,59.15 29.96,58.533 C28.736,57.799 27.401,57.188 26.485,56.018 C26.681,55.764 26.89,55.764 27.115,55.986 C28.391,56.538 29.667,57.096 30.943,57.65" id="Path" fill="#191D5D" fill-rule="nonzero"></path>
                <path d="M27.115,55.983 C26.905,55.996 26.695,56.007 26.485,56.018 L25.457,55.478 C24.939,54.768 24.422,54.058 23.902,53.348 L24.284,52.941 C25.228,53.955 26.17,54.971 27.114,55.983" id="Path" fill="#0E155D" fill-rule="nonzero"></path>
                <path d="M69.059,51.037 C65.752,49.551 63.005,47.447 61.015,44.332 C58.965,41.124 59.055,37.618 59.126,34.062 C59.156,32.517 60.722,33.165 61.295,32.432 C67.429,31.911 73.112,30.127 78.032,26.328 C78.497,25.969 80.292,25.536 78.508,24.443 C76.358,22.361 74.212,20.277 73.961,17.03 C73.531,15.477 72.773,13.879 74.543,12.616 C77.23,12.011 79.457,10.466 81.768,9.101 C86.013,7.179 89.219,9.217 92.274,11.837 C92.457,15.778 91.882,19.411 88.781,22.32 C87.089,23.91 85.058,24.652 82.924,24.985 C81.08,25.272 81.699,25.925 82.307,26.801 C86.057,30.176 85.733,34.567 84.771,38.751 C83.094,46.047 77.791,50.281 69.878,51.33 C69.5774345,51.3396373 69.284398,51.2349303 69.058,51.037" id="Path" fill="#FEE6D2" fill-rule="nonzero"></path>
                <path d="M69.613,51.037 C72.825,49.86 76.225,49.265 79.02,46.944 C84.94,42.021 86.255,33.238 82.307,26.801 L82.958,26.771 C83.224,26.724 83.558,26.683 83.724,26.857 C85.071,28.275 86.289,28.257 87.458,26.634 C87.578,26.466 87.949,26.474 88.208,26.401 C92.041,27.121 93.278,30.119 91.233,33.683 C90.056,35.273 91.026,37.203 90.392,38.911 C89.991,39.989 89.961,41.206 89.456,42.282 C87.548,48.058 83.049,50.882 77.609,52.647 C76.307,52.952 74.985,52.897 73.664,52.862 C72.4767876,52.8018198 71.3086131,52.5390312 70.21,52.085 C69.811,51.851 69.481,51.573 69.613,51.037" id="Path" fill="#F9DCC5" fill-rule="nonzero"></path>
                <path d="M90.582,33.442 C92.569,30.379 91.438,27.502 87.859,26.542 L88.21,26.402 C90.345,25.674 90.405,25.588 91.698,24.571 C92.681,24.985 93.052,25.721 92.852,26.756 C93.057,27.32 93.259,27.883 93.462,28.447 C94.715,29.318 94.71,30.738 95.038,32.014 C95.264,33.886 95.456,35.759 94.633,37.556 C94.568,38.19 94.551,38.831 94.426,39.462 C94.2716493,40.1110421 93.9835028,40.7207136 93.58,41.252 C92.723,42.144 93.052,43.291 92.904,44.338 C92.716,45.642 92.802,47.156 90.916,47.372 C90.252,47.064 90.159,46.486 90.183,45.846 C90.431,41.716 90.401,37.575 90.582,33.442" id="Path" fill="#161D72" fill-rule="nonzero"></path>
                <path d="M92.854,26.756 L91.698,24.571 C93.346,23.497 93.898,22.946 94.859,21.321 L95.583,22.989 C95.06,24.526 94.223,25.833 92.854,26.756" id="Path" fill="#FCE2D0" fill-rule="nonzero"></path>
                <path d="M87.9,26.517 L87.859,26.541 C86.761,27.354 86.697,28.671 86.447,30.176 C85.047,28.916 84.349,27.466 82.958,26.771 C85.142,26.846 86.009,26.846 87.899,26.517" id="Path" fill="#30337C" fill-rule="nonzero"></path>
                <path d="M96.588,12.876 C96.556,14.216 97.117,15.613 96.207,16.869 C96.657,15.787 96.657,14.685 96.588,12.876" id="Path" fill="#2F317C" fill-rule="nonzero"></path>
                <path d="M110.953,50.575 C109.697,50.37 108.863,50.106 107.605,49.904 C107.583,49.712 107.14,49.581 107.118,49.392 C106.95796,49.1586976 106.881165,48.8782907 106.9,48.596 C106.985,47.331 106.952,46.055 107.224,44.803 C107.694,43.241 107.398,41.634 107.491,40.051 C107.481,39.143 107.456,38.235 107.609,37.331 C107.81,36.751 107.528,35.479 108.389,35.57 C109.309,39.24 110.623,43.512 111.544,47.18 C111.38,48.316 112.021,49.594 110.954,50.575" id="Path" fill="#FE8CA7" fill-rule="nonzero"></path>
                <g id="Group" transform="translate(119.323000, 37.319000)">
                    <g id="Clipped">
                        <g id="Path-Clipped">
                            <mask id="mask-5" fill="white">
                                <use xlink:href="#path-4"></use>
                            </mask>
                            <g id="path-4"></g>
                            <path d="M8.945,2.71 C8.812,3.276 8.492,3.834 8.359,4.4 C7.789,6.034 7.22,7.667 6.653,9.302 L5.625,12.075 L5.625,12.077 C5.519,12.372 5.441,12.643 5.358,12.923 C5.088,11.311 2.607,9.276 2.498,10.601 C2.46,11.083 2.203,14.973 0.348,16.294 C0.356,16.408 2.624,17.737 3.29,18.096 L3.266,18.136 C4.773,19.013 5.674,19.486 8.869,21.965 C9.033,21.754 9.094,21.056 9.118,20.792 C8.104,19.034 9.074,17.167 8.808,15.369 C9.036,15.057 9.081,15.197 9.439,14.093 L9.665,13.45 C9.845,13.26 10.241,11.68 10.42,11.492 C10.614,10.58 11.228,9.93 11.42,9.02 C11.789,8.285 11.935,7.596 12.1,6.549 C12.1,6.289 12.274,6.058 12.276,5.795 C12.276,5.795 12.472,4.806 12.475,4.804 C12.714,3.872 12.878,2.872 13.24,1.158 L9.44,0.48 C9.402,1.278 9.148,2.013 8.945,2.71" id="Path" fill="url(#linearGradient-6)" fill-rule="nonzero" mask="url(#mask-5)"></path>
                        </g>
                    </g>
                </g>
                <g id="Group" transform="translate(83.448000, 111.116000)">
                    <g id="Clipped">
                        <g id="Shape-Clipped">
                            <mask id="mask-8" fill="white">
                                <use xlink:href="#path-7"></use>
                            </mask>
                            <g id="path-7"></g>
                            <path d="M48.572,4.98 C48.4959741,4.91056586 48.4158285,4.84578151 48.332,4.786 C47.843,4.907 47.602,5.273 47.432,5.699 C42.121,8.278 36.727,10.625 30.837,11.599 C30.425,11.836 29.97,11.815 29.515,11.793 C29.021,11.772 28.528,11.748 28.088,12.053 C27.9145231,12.0266696 27.7374734,12.0365435 27.568,12.082 C22,11.735 16.51,11.066 11.538,8.246 C9.068,6.512 6.742,4.464 3.452,4.505 C2.408,5.789 2.54,7.327 2.52,8.83 C2.5,9.452 2.602,9.946 2.792,10.353 C2.219,12.606 1.955,14.916 1.667,17.222 C1.45318349,17.3680683 1.26696661,17.5508994 1.117,17.762 C0.321,19.324 -0.082,20.89 1.052,22.477 C6.752,22.123 12.433,20.933 18.166,22.112 L22.606,24.018 C24.276,25.111 25.529,26.634 26.833,28.105 C26.855,28.267 26.857,28.43 26.84,28.592 C27.883,29.876 28.04,31.541 28.724,32.978 C28.741,33.174 28.76,33.37 28.78,33.565 C29.058,35.375 29.021,37.184 28.804,38.995 C28.784,39.204 28.767,39.41 28.75,39.617 C29.819,40.34 30.628,39.64 31.469,39.12 C31.636,39.083 31.8,39.034 31.959,38.972 L31.959,38.969 C33.697889,39.1624915 35.4541254,38.8146667 36.988,37.973 C40.237,37.173 43.198,35.818 45.633,33.464 C47.998,31.364 50.652,29.512 51.823,26.372 L51.821,26.372 C53.751,24.136 53.961,21.169 55.131,18.614 L55.071,17.029 L55.751,10.437 C55.385,6.973 56.219,3.443 55.143,0.023 C52.394,0.939 50.219,2.611 48.572,4.979 M22.187,16.096 L22.265,16.014 C22.255,16.057 22.254,16.096 22.245,16.137 C22.228,16.121 22.206,16.111 22.187,16.096 M33.635,26.375 C33.687,26.413 33.724,26.456 33.767,26.499 C33.722,26.536 33.677,26.569 33.631,26.603 C33.631,26.527 33.637,26.454 33.637,26.375" id="Shape" fill="url(#linearGradient-9)" fill-rule="nonzero" mask="url(#mask-8)"></path>
                        </g>
                    </g>
                </g>
                <path d="M92.248,49.444 C92.296,49.955 92.341,50.465 92.386,50.975 C87.428,51.33 85.017,51.917 83.879,52.199 C81.99,52.58 80.543,53.507 78.566,54.088 C77.976,53.698 77.277,52.948 77.881,52.171 C78.625,51.063 79.948,51.065 81.011,50.592 C84.816,48.895 87.341,46.049 88.833,42.219 C90.241,43.132 90.549,44.545 90.601,46.076 C90.776,46.518 90.953,46.956 91.129,47.398 C91.912,47.856 92.261,48.553 92.249,49.444" id="Path" fill="#F6D5BC" fill-rule="nonzero"></path>
                <path d="M83.911,95.633 C81.335,97.948 78.7,100.203 76.206,102.601 C74.686,104.064 72.879,104.905 70.928,105.364 C68.662,105.897 66.782,104.241 65.76,101.149 C69.181,103.802 70.51,103.799 74.285,101.321 C78.405,98.617 81.738,94.958 85.692,92.051 C87.647,90.614 89.802,89.764 92.221,89.569 C92.345,89.67 92.386,89.767 92.339,89.859 C92.291,89.949 92.246,89.995 92.201,89.995 L92.248,90.135 C90.856,91.254 88.982,91.421 87.561,92.486 C86.186,93.353 85.394,94.896 83.911,95.633" id="Path" fill="#EED9CA" fill-rule="nonzero"></path>
                <path d="M76.238,75.816 C76.974,78.955 78.554,81.893 78.483,85.226 C79.534,86.723 78.683,87.846 77.745,88.951 L76.249,89.094 C76.594,85.194 75.526,81.366 75.652,77.477 C75.71,76.874 75.572,76.203 76.238,75.816" id="Path" fill="#827DFA" fill-rule="nonzero"></path>
                <path d="M71.264,56.547 C70.311,55.035 70.102,53.367 70.247,51.629 C71.32,51.803 72.394,51.975 73.467,52.148 C74.3,53.258 74.065,54.152 72.922,54.867 C72.226,55.287 71.59,55.764 71.264,56.547" id="Path" fill="#FD8AA9" fill-rule="nonzero"></path>
                <path d="M72.922,54.867 C73.457,54.032 73.537,53.105 73.468,52.147 C74.938,52.156 76.411,52.165 77.881,52.171 L78.394,53.752 C76.451,53.552 74.75,54.512 72.922,54.867" id="Path" fill="#FE9FB7" fill-rule="nonzero"></path>
                <path d="M77.745,88.951 L78.483,85.225 C80.336,84.711 80.155,86.385 80.701,87.28 C79.716,87.835 78.731,88.392 77.745,88.951" id="Path" fill="#F3C0D8" fill-rule="nonzero"></path>
                <path d="M92.2,89.995 C92.218,89.853 92.224,89.711 92.218,89.569 C93.945,88.641 95.618,87.629 97.27,86.529 C96.32,88.364 94.51,89.179 92.83,90.143 L92.2,89.995" id="Path" fill="#D2CACF" fill-rule="nonzero"></path>
                <g id="Group" transform="translate(127.050000, 42.275000)">
                    <g id="Clipped">
                        <g id="Path-Clipped">
                            <mask id="mask-11" fill="white">
                                <use xlink:href="#path-10"></use>
                            </mask>
                            <g id="path-10"></g>
                            <path d="M16.338,2.659 C15.34633,3.55724909 14.3523266,4.45291878 13.356,5.346 C12.5,6.142 11.765,6.896 10.896,7.661 C9.656,8.635 9.254,9.151 7.973,10.317 C7.065,11.305 6.083,12.09 5.728,10.909 C5.584,10.909 5.439,10.913 5.293,10.915 C4.579,11.496 4.383,12.305 4.29,13.155 C2.656,13.368 1.943,14.872 0.878,15.881 C0.878,16.059 0.444,16.266 0.446969195,16.441 C1.369,17.182 0.839,16.769 1.76,17.507 C1.76,17.507 3.45,18.854 3.452,18.854 C3.93,19.189 4.868,19.854 4.896,19.894 C6.692,21.543 6.929,21.773 8.867,24.073 C9.881,22.459 11.093,20.848 12.106,19.237 C12.91,17.991 13.475,17.167 14.298,15.939 C14.863,15.158 15.275,14.499 15.816,13.744 C15.818,13.744 15.818,13.744 15.818,13.747 C16.883,12.275 17.519,11.251 18.53,9.797 L18.53,9.795 L22.383,4.741 L18.621,0.477 C17.86,1.205 17.099,1.932 16.336,2.659" id="Path" fill="url(#linearGradient-12)" fill-rule="nonzero" mask="url(#mask-11)"></path>
                        </g>
                    </g>
                </g>
                <path d="M46.986,69.211 C46.986,69.945 46.986,70.678 46.988,71.412 C45.8,73.052 43.851,72.649 42.248,73.075 C40.178,73.622 38.371,75.198 36.036,74.71 L35.9,68.672 C39.53,70.16 43.215,70.586 46.986,69.212" id="Path" fill="#F4D2B8" fill-rule="nonzero"></path>
                <path d="M31.002,77.595 L35.851,76.825 C36.939,78.41 37.14,80.42 38.321,81.966 C39.315,84.765 38.403,87.586 38.408,90.397 C38.423,98.174 38.438,105.951 38.394,113.727 C38.386,115.332 38.654,117.084 37.041,118.239 C34.574,116.333 32.765,113.921 31.521,111.077 C32.575,100.555 31.918,90.007 32.032,79.473 C32.041,78.636 31.323,78.232 31.002,77.595" id="Path" fill="#579CFE" fill-rule="nonzero"></path>
                <path d="M60.836,96.244 C61.088,103.137 63.037,109.741 64.348,116.449 C65.223,120.922 66.388,125.336 67.422,129.779 C67.397,129.963 67.371,130.149 67.347,130.335 C64.527,129.232 61.44,129.559 58.581,128.67 C58.078,127.715 58.299,126.691 58.316,125.695 C58.454,117.542 58.031,109.375 58.822,101.233 C58.991,99.495 58.292,97.776 58.566,96.027 C58.71,95.107 58.413,93.869 59.943,93.768 C61.047,94.304 60.926,95.278 60.836,96.244" id="Path" fill="#75ADFE" fill-rule="nonzero"></path>
                <path d="M37.04,118.239 C37.512,116.752 37.625,115.234 37.616,113.672 C37.58,105.564 37.576,97.455 37.616,89.347 C37.626,86.841 38.403,84.337 37.614,81.833 C39.863,81.454 41.941,82.186 44.041,82.813 C44.789,84.989 45.046,87.25 45.055,89.521 C45.1,99.306 45.095,109.089 45.055,118.871 C45.048,120.583 45.188,122.393 43.676,123.703 L38.157,119.863 C37.787,119.321 37.414,118.779 37.041,118.239" id="Path" fill="#5E9FFE" fill-rule="nonzero"></path>
                <path d="M43.631,82.947 C41.5633214,83.0918471 39.4927692,82.7085007 37.614,81.833 C36.084,80.493 35.799,78.718 35.851,76.827 C35.913,76.121 35.973,75.416 36.036,74.712 C39.509,73.028 43.181,71.995 46.988,71.412 C48.105,72.425 47.042,74.073 48.07,75.11 C48.8,76.838 49.535,78.563 48.452,80.422 C47.374,82.27 45.632,82.852 43.632,82.947" id="Path" fill="#FEE6D2" fill-rule="nonzero"></path>
                <path d="M60.202,93.994 C58.309,94.544 59.162,96.569 59.316,97.12 C60.136,100.058 59.318,102.911 59.333,105.78 C59.363,112.437 59.199,119.095 59.133,125.75 C59.124,126.766 59.13,127.764 58.581,128.67 C58.393,128.681 58.204,128.692 58.016,128.7 C57.098,128.505 56.179,128.311 55.261,128.115 C53.542,127.015 53.861,125.243 53.857,123.636 C53.825,110.428 53.814,97.219 53.862,84.01 C53.872,80.888 53.601,77.786 53.517,74.671 C55.019,74.321 56.524,73.968 58.029,73.615 C60.017,73.765 59.84,75.349 59.905,76.625 C60.083,80.047 59.81,83.483 60.107,86.903 C59.891,89.268 61.527,91.613 60.202,93.993" id="Path" fill="#70AAFE" fill-rule="nonzero"></path>
                <path d="M53.517,74.671 C55.137,76.059 54.664,77.995 54.672,79.697 C54.739,94.682 54.711,109.668 54.711,124.657 C54.711,125.837 54.571,127.042 55.259,128.115 C53.239,127.562 51.218,127.012 49.196,126.459 C48.595,125.596 48.448,124.63 48.431,123.593 C48.245,112.228 48.316,100.865 48.383,89.5 C48.403,86.398 48.922,83.296 48.092,80.224 C49.032,78.516 47.613,76.818 48.07,75.11 L53.517,74.671 L53.517,74.671 Z" id="Path" fill="#6AA7FE" fill-rule="nonzero"></path>
                <path d="M48.092,80.224 C49.685,81.415 49.897,83.304 49.662,84.89 C48.674,91.537 49.355,98.198 49.224,104.847 C49.081,112.047 49.194,119.254 49.196,126.459 L48.079,125.951 L43.676,123.703 C44.802,116.803 44.173,109.851 44.162,102.928 C44.151,96.743 44.957,90.505 43.48,84.378 C43.338,83.795 44.248,83.472 43.631,82.948 C45.199,82.17 46.973,81.732 48.091,80.224" id="Path" fill="#64A3FE" fill-rule="nonzero"></path>
                <path d="M90.601,46.076 L88.833,42.218 C89.784343,39.835342 90.1316539,37.2543858 89.844,34.705 C89.774,34.053 89.488,33.375 90.582,33.442 C91.213,37.652 91.675,41.865 90.602,46.076" id="Path" fill="#14185B" fill-rule="nonzero"></path>
                <path d="M93.32,41.073 C92.936,42.193 92.333,43.317 93.341,44.429 C93.901,44.855 93.971,45.438 93.878,46.074 L94.415,49.364 C93.692,49.39 92.971,49.416 92.25,49.444 C91.614,48.904 91.272,48.207 91.13,47.398 C92.466,45.918 92.395,44.065 92.44,42.263 C92.457,41.598 92.328,40.963 93.32,41.073" id="Path" fill="#F690AE" fill-rule="nonzero"></path>
                <g id="Group" transform="translate(127.050000, 38.420000)">
                    <g id="Clipped">
                        <g id="Path-Clipped">
                            <mask id="mask-14" fill="white">
                                <use xlink:href="#path-13"></use>
                            </mask>
                            <g id="path-13"></g>
                            <polygon id="Path" fill="url(#linearGradient-15)" fill-rule="nonzero" mask="url(#mask-14)" points="-135.774 136.58 49.121 136.58 49.121 -53.42 -135.774 -53.42"></polygon>
                        </g>
                    </g>
                </g>
                <g id="Group" transform="translate(92.278000, 26.855000)">
                    <g id="Clipped">
                        <g id="Path-Clipped">
                            <mask id="mask-17" fill="white">
                                <use xlink:href="#path-16"></use>
                            </mask>
                            <g id="path-16"></g>
                            <path d="M1.184,1.592 C1.184,1.592 4.36,9.728 1.04,14.218 C0.16,15.408 0.107,20.712 2.136,22.506 C2.448,22.784 2.498,23.259 2.679,23.636 C2.935,22.188 4.276,22.119 5.199,22.086 C8.414,21.971 11.667,21.59 14.839,22.536 C14.867,22.356 14.912,22.384 14.908,22.201 L15.022,21.701 C15.787,20.36 15.224,19.415 15.42,18.131 C15.742,16.301 15.738,14.818 15.96,13.168 C15.96,12.249 15.964,11.331 15.968,10.412 C15.981,9.965 16.093,9.214 16.11,8.715 C16.134,7.998 15.582,6.419 15.42,5.451 C15.078,3.621 14.155,2.156 12.65,1.051 C11.565,0.554 10.196,0.375 8.788,0.375 C5.125,0.375 1.184,1.593 1.184,1.593" id="Path" fill="url(#linearGradient-18)" fill-rule="nonzero" mask="url(#mask-17)"></path>
                        </g>
                    </g>
                </g>
                <path d="M60.202,93.994 C60.329,91.763 59.068,89.644 59.667,87.374 C61.151,86.324 62.699,85.488 64.615,85.772 C64.531,88.476 66.095,91.178 64.628,93.884 C63.406,94.734 62.46,96.029 60.836,96.244 C59.978,95.676 60.321,94.77 60.202,93.994" id="Path" fill="#4E8BFD" fill-rule="nonzero"></path>
                <path d="M83.911,95.633 C84.64,94.14 85.925,93.206 87.264,92.331 C87.846,92.094 87.925,92.361 87.785,92.847 C86.565,93.918 85.605,94.764 84.388,95.836 C84.328,95.686 84.101,95.612 83.911,95.633" id="Path" fill="#5559EC" fill-rule="nonzero"></path>
                <path d="M64.615,85.772 C63.033,86.514 61.475,87.325 59.67,87.375 C58.46,83.866 59.426,80.249 59.13,76.695 C59.038,75.562 59.43,74.275 58.026,73.617 C60.232,72.507 62.438,71.399 64.643,70.293 C64.65,74.701 64.661,79.112 64.669,83.523 C64.649,84.273 64.632,85.023 64.615,85.772" id="Path" fill="#75ADFE" fill-rule="nonzero"></path>
                <path d="M87.785,92.847 L87.265,92.331 C88.665,91.008 90.554,90.789 92.248,90.134 C91.268,91.871 89.103,91.667 87.785,92.847" id="Path" fill="#7479EE" fill-rule="nonzero"></path>
                <g id="Group" transform="translate(115.460000, 68.710000)">
                    <g id="Clipped">
                        <g id="Path-Clipped">
                            <mask id="mask-20" fill="white">
                                <use xlink:href="#path-19"></use>
                            </mask>
                            <g id="path-19"></g>
                            <polygon id="Path" fill="url(#linearGradient-21)" fill-rule="nonzero" mask="url(#mask-20)" points="-124.183 106.29 60.712 106.29 60.712 -83.71 -124.183 -83.71"></polygon>
                        </g>
                    </g>
                </g>
                <g id="Group" transform="translate(106.077000, 95.696000)">
                    <g id="Clipped">
                        <g id="Path-Clipped">
                            <mask id="mask-23" fill="white">
                                <use xlink:href="#path-22"></use>
                            </mask>
                            <g id="path-22"></g>
                            <path d="M31.938,7.644 L31.348,4.378 C28.519,4.501 21.51,4.978 15.144,3.774 C12.524,3.278 0.384,0.304 0.384,0.304 C11.655,6.54 31.938,7.644 31.938,7.644" id="Path" fill="url(#linearGradient-24)" fill-rule="nonzero" mask="url(#mask-23)"></path>
                        </g>
                    </g>
                </g>
                <path d="M54.957,55.369 C55.051,55.082 54.846,55.273 55.127,55.369 C53.965,58.924 51.737,61.365 47.873,60.259 C47.593,60.179 47.393,59.911 47.452,59.615 C50.772,60.292 53.972,58.385 54.957,55.369 L54.957,55.369 Z M65.54,45.923 C65.246,45.813 64.92,45.407 65.495,45.407 C66.071,45.407 65.777,45.297 66.071,45.407 C70.42,47.033 73.785,46.289 75.933,43.077 C76.097,42.832 76.45,42.753 76.723,42.9 C76.995,43.046 77.083,43.363 76.92,43.608 C74.466,47.278 70.396,47.738 65.54,45.923 Z M80.742,23.388 C80.584,23.327 80.739,23.539 80.8,23.388 C80.86,23.238 80.583,23.244 80.74,23.305 C82.881,24.13 84.542,23.445 84.993,21.323 C85.0311021,21.1622038 85.1920629,21.0624976 85.353,21.1 C85.5155447,21.1308096 85.6224673,21.2873908 85.592,21.45 C85.065,23.93 83.232,24.348 80.742,23.388 Z" id="Shape" fill="#D5AB89" fill-rule="nonzero"></path>
            </g>
        </g>
    </g>
    </svg>