<?xml version="1.0" encoding="UTF-8"?>
<svg width="175px" height="1579px" viewBox="0 0 175 1579" version="1.1" xmlns="http://www.w3.org/2000/svg" xmlns:xlink="http://www.w3.org/1999/xlink">

    <!-- Generator: Sketch 59.1 (86144) - https://sketch.com -->
    <title>icons_bu (1)</title>
    <desc>Created with Sketch.</desc>
    <g id="Page-1" stroke="none" stroke-width="1" fill="none" fill-rule="evenodd">
        <g id="icons_bu-(1)">
       <path d="M23.288,154.498 C23.042,151.247 22.223,149.226 20.588,147.778 C20.806463,144.876664 20.788069,141.962347 20.533,139.064 C19.896,132.098 16.814,128.274 11.869,128.274 C6.843,128.274 3.92,131.907 3.21,139.064 C2.952165,141.96088 2.933769,144.874095 3.155,147.774 C1.516,149.226 0.696,151.248 0.423,154.526 L0.396,155.017 C0.386882,155.188742 0.449166,155.356613 0.568097,155.480846 C0.687027,155.60508 0.852024,155.674622 1.024,155.673 C4.613355,156.105315 8.226852,156.30573 11.842,156.273 C15.456838,156.292847 19.069528,156.092476 22.66,155.673 C22.837748,155.677525 23.008782,155.605024 23.129129,155.474137 C23.249476,155.34325 23.307397,155.166745 23.288,154.99 L23.288,154.498 Z M3.674,139.119 C4.384,132.235 7.116,128.766 11.869,128.766 C18.179,128.766 19.709,135.24 20.037,139.119 C20.256,141.632 20.501,147.619 19.764,149.199 C18.277108,149.918865 16.54897,149.948849 15.038,149.281 C15.867207,148.130925 16.342024,146.76348 16.404,145.347 C16.404,145.211138 16.293862,145.101 16.158,145.101 C16.022138,145.101 15.912,145.211138 15.912,145.347 C15.902988,146.189834 15.706936,147.02015 15.338,147.778 C15.036339,146.675772 14.952775,145.52525 15.092,144.391 C16.499957,143.001429 17.436289,141.205014 17.769,139.255 C18.22207,138.615671 18.469721,137.853536 18.479,137.07 C18.543854,137.07445 18.608921,137.065252 18.67,137.043 C18.805862,137.027812 18.903688,136.905362 18.8885,136.7695 C18.873312,136.633638 18.750862,136.535812 18.615,136.551 C15.146,137.015 12.115,131.934 12.059,131.88 C12.011115,131.792184 11.910218,131.747478 11.813,131.771 C9.990427,132.06838 8.424001,133.228392 7.608,134.885 C7.269732,135.671961 6.995509,136.484932 6.788,137.316 C6.545584,138.689107 5.876558,139.95088 4.876,140.922 C4.774104,141.013129 4.762195,141.168397 4.849,141.274 C4.897588,141.327983 4.967398,141.357953 5.04,141.356 C5.098109,141.350241 5.154169,141.331441 5.204,141.301 C5.590367,140.973162 5.922172,140.585999 6.187,140.154 C6.599848,141.752111 7.440273,143.207556 8.618,144.364 L8.618,144.391 C8.753131,145.504515 8.688451,146.633211 8.427,147.724 C8.324365,147.322472 8.305642,146.904091 8.372,146.495 C8.386504,146.370873 8.30173,146.256959 8.178665,146.235211 C8.055601,146.213462 7.936918,146.291421 7.908,146.413 C7.733961,147.449036 8.023508,148.509247 8.7,149.313 C7.181312,149.941455 5.469972,149.911761 3.974,149.231 C3.816464,148.827854 3.715505,148.404838 3.674,147.974 C3.681752,147.926573 3.672167,147.87794 3.647,147.837 C3.408208,144.935514 3.41724,142.018951 3.674,139.119 L3.674,139.119 Z M9.247,149.174 C9.001425,148.926883 8.798659,148.640645 8.647,148.327 L8.674,148.3 C9.111834,147.179565 9.27073,145.969487 9.137,144.774 C9.917205,145.388841 10.875918,145.733796 11.869,145.757 C12.838305,145.744908 13.777577,145.418952 14.546,144.828 C14.409841,146.004926 14.569319,147.19723 15.01,148.297 L15.01,148.297 C14.844339,148.604407 14.652284,148.89684 14.436,149.171 C14.389247,149.233769 14.369452,149.312589 14.381,149.39 C14.408,149.472 14.436,149.527 14.518,149.554 C14.719421,149.654918 14.929625,149.737259 15.146,149.8 C14.261864,150.658122 13.072958,151.129728 11.841,151.111 L11.814,151.111 C10.591008,151.124416 9.412452,150.653065 8.536,149.8 C8.750166,149.720547 8.959814,149.62941 9.164,149.527 C9.245257,149.498436 9.299992,149.422125 9.301,149.336 C9.356,149.308 9.329,149.226 9.247,149.174 Z M11.869,145.268 C9.52,145.268 7.334,142.919 6.542,139.531 C6.841283,138.859113 7.088022,138.165033 7.28,137.455 C7.494952,136.642914 7.767647,135.847222 8.096,135.074 C8.81562,133.620832 10.166711,132.582043 11.756,132.26 C12.275,133.08 14.843,136.931 17.984,137.04 C17.902,137.696 17.738,138.706 17.438,138.87 C17.378306,138.911231 17.330949,138.967921 17.301,139.034 C16.596,142.725 14.355,145.265 11.869,145.265 L11.869,145.268 Z M8.045,149.991 C9.02808,151.04278 10.405333,151.636811 11.845,151.63 L11.872,151.63 C13.327848,151.642072 14.723189,151.048364 15.724,149.991 C16.179295,150.112993 16.646235,150.186403 17.117,150.21 C15.737551,151.616639 13.841948,152.396565 11.872,152.368 L11.845,152.368 C9.900128,152.39101 8.032013,151.610186 6.682,150.21 C7.142195,150.179893 7.598537,150.10657 8.045,149.991 L8.045,149.991 Z M22.632,155.181 C19.061075,155.61345 15.465865,155.813871 11.869,155.781 C8.272468,155.800159 4.678118,155.599787 1.106,155.181 C0.887,155.154 0.887,155.099 0.887,155.017 L0.914,154.525 C1.16,151.575 1.843,149.69 3.236,148.325 C3.288609,148.704004 3.399237,149.072653 3.564,149.418 C3.591,149.445 3.619,149.5 3.646,149.527 C4.37482,149.902581 5.175989,150.116772 5.995,150.155 C5.995981,150.197763 6.016186,150.237805 6.05,150.264 C7.501818,151.904873 9.596236,152.832155 11.787,152.804 L11.842,152.804 C14.071529,152.83956 16.205914,151.901978 17.688,150.236 C17.715,150.209 17.715,150.181 17.743,150.154 C18.559548,150.132089 19.357697,149.9066 20.065,149.498 L20.147,149.416 C20.307816,149.069142 20.418264,148.701092 20.475,148.323 C21.841,149.662 22.551,151.546 22.797,154.497 L22.824,154.961 C22.851,155.127 22.851,155.154 22.632,155.181 Z" id="Path_7592" stroke="#253758" stroke-width="0.5" fill="#253858" fill-rule="nonzero"></path>

        </g>
    </g>
    </svg>