<?xml version="1.0" encoding="UTF-8"?>
<svg width="26px" height="26px" viewBox="0 0 26 26" version="1.1" xmlns="http://www.w3.org/2000/svg" xmlns:xlink="http://www.w3.org/1999/xlink">
    <!-- Generator: Sketch 55 (78076) - https://sketchapp.com -->
    <title>Group 56</title>
    <desc>Created with Sketch.</desc>
    <g id="Page-1" stroke="none" stroke-width="1" fill="none" fill-rule="evenodd">
        <g id="Landing-Page" transform="translate(-153.000000, -359.000000)" fill="#253858" fill-rule="nonzero">
            <g id="Group-49" transform="translate(-2.000000, 0.000000)">
                <g id="Group-39" transform="translate(155.000000, 357.000000)">
                    <g id="Group-56" transform="translate(0.000000, 2.000000)">
                        <path d="M22.4406709,13.6377358 L12.324109,13.6377358 L12.324109,3.521174 C12.324109,3.11236897 11.997065,2.78532495 11.58826,2.78532495 C5.2,2.78532495 0,7.98532495 0,14.3735849 C0,20.7618449 5.2,25.9618449 11.58826,25.9618449 C17.9765199,25.9618449 23.1765199,20.7618449 23.1765199,14.3735849 C23.1765199,13.9702306 22.8440252,13.6377358 22.4406709,13.6377358 Z M11.58826,24.4901468 C6.01215933,24.4901468 1.47169811,19.9496855 1.47169811,14.3735849 C1.47169811,9.0427673 5.61425577,4.66037736 10.8524109,4.28427673 L10.8524109,14.3735849 C10.8524109,14.7823899 11.1794549,15.109434 11.58826,15.109434 L21.6775681,15.109434 C21.3014675,20.3475891 16.9190776,24.4901468 11.58826,24.4901468 Z" id="Shape"></path>
                        <path d="M25.9563941,11.5501048 C25.9454927,8.73752621 24.915304,6.02851153 23.0566038,3.91907757 C20.8545073,1.42809224 17.6930818,0 14.3681342,0 C13.9593291,0 13.6322851,0.327044025 13.6322851,0.735849057 L13.6322851,11.58826 C13.6322851,11.997065 13.9593291,12.324109 14.3681342,12.324109 L25.2205451,12.324109 L25.2205451,12.324109 C25.6293501,12.324109 25.9563941,11.997065 25.9563941,11.58826 C25.9563941,11.5773585 25.9563941,11.566457 25.9563941,11.5501048 Z M15.1039832,10.8578616 L15.1039832,1.50440252 C17.7312369,1.6951782 20.1949686,2.91069182 21.9501048,4.90020964 C23.4218029,6.56268344 24.2939203,8.6557652 24.4574423,10.8578616 L15.1039832,10.8578616 Z" id="Shape"></path>
                    </g>
                </g>
            </g>
        </g>
    </g>
</svg>