<?xml version="1.0" encoding="UTF-8"?>
<svg width="175px" height="1579px" viewBox="0 0 175 1579" version="1.1" xmlns="http://www.w3.org/2000/svg" xmlns:xlink="http://www.w3.org/1999/xlink">

    <!-- Generator: Sketch 59.1 (86144) - https://sketch.com -->
    <title>icons_bu (1)</title>
    <desc>Created with Sketch.</desc>
    <defs>
        <path d="M27.929,0.493 C27.929,0.493 28.642,4.378 28.349,5.733 C28.058,7.076 26.042,8.752 25.139,9.121 C24.147,9.524 21.995,10.167 20.869,10.188 C18.602,10.229 17.909,10.238 17.909,10.238 L7.129,10.402 C7.129,10.402 0.92,12.352 0.514,21.409 C0.104,30.462 0.714,40.577 0.54,42.096 C0.365,43.615 0.872,46.386 2.11,47.216 C2.11,47.216 2.351,44.718 6.212,42.834 C10.074,40.949 15.082,39.913 18.329,37.893 C18.329,37.893 20.401,48.545 20.392,50.585 C20.386,52.625 18.972,65.215 23.139,66.631 C23.139,66.631 30.583,71.876 34.572,72.969 C38.56,74.059 47.117,77.695 60.282,71.618 C66.556,68.436 69.701,65.857 71.454,64.532 C73.204,63.207 75.606,62.374 75.05,58.887 C74.496,55.402 73.353,53.747 73.295,51.189 C73.238,48.632 84.71,38.9 84.71,38.9 C84.71,38.9 85.816,38.518 84.552,36.579 C83.287,34.64 74.484,22.54 73.447,20.289 C72.412,18.039 70.095,13.759 66.774,12.506 C65.075,10.723 56.732,4.854 53.494,3.82 C50.258,2.787 47.616,2.311 46.824,1.692 C46.032,1.07 44.967,0.111 43.05,1.079 C41.97,1.625 37.98,1.266 34.321,0.909 C32.018,0.683 29.845,0.457 28.611,0.457 C28.331,0.457 28.101,0.468 27.929,0.494" id="path-1"></path>
        <linearGradient x1="12.215%" y1="16.822%" x2="83.136%" y2="79.075%" id="linearGradient-3">
            <stop stop-color="#9E81FC" offset="0%"></stop>
            <stop stop-color="#ADC0FD" offset="100%"></stop>
        </linearGradient>
        <path d="M8.945,2.71 C8.812,3.276 8.492,3.834 8.359,4.4 C7.789,6.034 7.22,7.667 6.653,9.302 L5.625,12.075 L5.625,12.077 C5.519,12.372 5.441,12.643 5.358,12.923 C5.088,11.311 2.607,9.276 2.498,10.601 C2.46,11.083 2.203,14.973 0.348,16.294 C0.356,16.408 2.624,17.737 3.29,18.096 L3.266,18.136 C4.773,19.013 5.674,19.486 8.869,21.965 C9.033,21.754 9.094,21.056 9.118,20.792 C8.104,19.034 9.074,17.167 8.808,15.369 C9.036,15.057 9.081,15.197 9.439,14.093 L9.665,13.45 C9.845,13.26 10.241,11.68 10.42,11.492 C10.614,10.58 11.228,9.93 11.42,9.02 C11.789,8.285 11.935,7.596 12.1,6.549 C12.1,6.289 12.274,6.058 12.276,5.795 C12.276,5.795 12.472,4.806 12.475,4.804 C12.714,3.872 12.878,2.872 13.24,1.158 L9.44,0.48 C9.402,1.278 9.148,2.013 8.945,2.71" id="path-4"></path>
        <linearGradient x1="49.995%" y1="100.001%" x2="49.995%" y2="-0.001%" id="linearGradient-6">
            <stop stop-color="#5B9CFC" offset="0%"></stop>
            <stop stop-color="#92BCFC" offset="100%"></stop>
        </linearGradient>
        <path d="M48.572,4.98 C48.4959741,4.91056586 48.4158285,4.84578151 48.332,4.786 C47.843,4.907 47.602,5.273 47.432,5.699 C42.121,8.278 36.727,10.625 30.837,11.599 C30.425,11.836 29.97,11.815 29.515,11.793 C29.021,11.772 28.528,11.748 28.088,12.053 C27.9145231,12.0266696 27.7374734,12.0365435 27.568,12.082 C22,11.735 16.51,11.066 11.538,8.246 C9.068,6.512 6.742,4.464 3.452,4.505 C2.408,5.789 2.54,7.327 2.52,8.83 C2.5,9.452 2.602,9.946 2.792,10.353 C2.219,12.606 1.955,14.916 1.667,17.222 C1.45318349,17.3680683 1.26696661,17.5508994 1.117,17.762 C0.321,19.324 -0.082,20.89 1.052,22.477 C6.752,22.123 12.433,20.933 18.166,22.112 L22.606,24.018 C24.276,25.111 25.529,26.634 26.833,28.105 C26.855,28.267 26.857,28.43 26.84,28.592 C27.883,29.876 28.04,31.541 28.724,32.978 C28.741,33.174 28.76,33.37 28.78,33.565 C29.058,35.375 29.021,37.184 28.804,38.995 C28.784,39.204 28.767,39.41 28.75,39.617 C29.819,40.34 30.628,39.64 31.469,39.12 C31.636,39.083 31.8,39.034 31.959,38.972 L31.959,38.969 C33.697889,39.1624915 35.4541254,38.8146667 36.988,37.973 C40.237,37.173 43.198,35.818 45.633,33.464 C47.998,31.364 50.652,29.512 51.823,26.372 L51.821,26.372 C53.751,24.136 53.961,21.169 55.131,18.614 L55.071,17.029 L55.751,10.437 C55.385,6.973 56.219,3.443 55.143,0.023 C52.394,0.939 50.219,2.611 48.572,4.979 M22.187,16.096 L22.265,16.014 C22.255,16.057 22.254,16.096 22.245,16.137 C22.228,16.121 22.206,16.111 22.187,16.096 M33.635,26.375 C33.687,26.413 33.724,26.456 33.767,26.499 C33.722,26.536 33.677,26.569 33.631,26.603 C33.631,26.527 33.637,26.454 33.637,26.375" id="path-7"></path>
        <linearGradient x1="33.662%" y1="18.24%" x2="75.815%" y2="70.714%" id="linearGradient-9">
            <stop stop-color="#FF7AAC" offset="0%"></stop>
            <stop stop-color="#FFBAD6" offset="100%"></stop>
        </linearGradient>
        <path d="M16.338,2.659 C15.34633,3.55724909 14.3523266,4.45291878 13.356,5.346 C12.5,6.142 11.765,6.896 10.896,7.661 C9.656,8.635 9.254,9.151 7.973,10.317 C7.065,11.305 6.083,12.09 5.728,10.909 C5.584,10.909 5.439,10.913 5.293,10.915 C4.579,11.496 4.383,12.305 4.29,13.155 C2.656,13.368 1.943,14.872 0.878,15.881 C0.878,16.059 0.444,16.266 0.446969195,16.441 C1.369,17.182 0.839,16.769 1.76,17.507 C1.76,17.507 3.45,18.854 3.452,18.854 C3.93,19.189 4.868,19.854 4.896,19.894 C6.692,21.543 6.929,21.773 8.867,24.073 C9.881,22.459 11.093,20.848 12.106,19.237 C12.91,17.991 13.475,17.167 14.298,15.939 C14.863,15.158 15.275,14.499 15.816,13.744 C15.818,13.744 15.818,13.744 15.818,13.747 C16.883,12.275 17.519,11.251 18.53,9.797 L18.53,9.795 L22.383,4.741 L18.621,0.477 C17.86,1.205 17.099,1.932 16.336,2.659" id="path-10"></path>
        <linearGradient x1="24.412%" y1="90.36%" x2="74.365%" y2="-2.5%" id="linearGradient-12">
            <stop stop-color="#5B9CFC" offset="0%"></stop>
            <stop stop-color="#92BCFC" offset="100%"></stop>
        </linearGradient>
        <path d="M2.395,10.038 L5.513,0.056 L7.08,0.488 L7.142,1.052 L6.504,6.022 C6.498,6.387 6.492,6.755 6.483,7.121 L6.485,7.121 C6.445,8.043 6.283,8.646 6.283,9.113 C6.253,9.197 6.127,10.935 6.076,11.014 C6.022,12.28 5.856,13.694 5.802,14.96 C5.828,15.138 5.659,15.64 5.603,15.773 C5.553,15.896 5.3,16.38 4.933,17.023 C4.197,18.316 2.902,19.631 1.061,19.779 C-0.748,17.944 0.237,16.119 1.067,14.295 L2.395,10.038 C2.415,10.031 2.432,10.027 2.449,10.02 L2.395,10.038 Z" id="path-13"></path>
        <linearGradient x1="75.375%" y1="38.525%" x2="75.375%" y2="28.145%" id="linearGradient-15">
            <stop stop-color="#3E80FD" offset="0%"></stop>
            <stop stop-color="#5B9CFC" offset="100%"></stop>
        </linearGradient>
        <path d="M1.184,1.592 C1.184,1.592 4.36,9.728 1.04,14.218 C0.16,15.408 0.107,20.712 2.136,22.506 C2.448,22.784 2.498,23.259 2.679,23.636 C2.935,22.188 4.276,22.119 5.199,22.086 C8.414,21.971 11.667,21.59 14.839,22.536 C14.867,22.356 14.912,22.384 14.908,22.201 L15.022,21.701 C15.787,20.36 15.224,19.415 15.42,18.131 C15.742,16.301 15.738,14.818 15.96,13.168 C15.96,12.249 15.964,11.331 15.968,10.412 C15.981,9.965 16.093,9.214 16.11,8.715 C16.134,7.998 15.582,6.419 15.42,5.451 C15.078,3.621 14.155,2.156 12.65,1.051 C11.565,0.554 10.196,0.375 8.788,0.375 C5.125,0.375 1.184,1.593 1.184,1.593" id="path-16"></path>
        <linearGradient x1="50.001%" y1="-0.002%" x2="50.001%" y2="99.997%" id="linearGradient-18">
            <stop stop-color="#FD89A9" offset="0%"></stop>
            <stop stop-color="#FDB8CA" offset="100%"></stop>
        </linearGradient>
        <path d="M13.65,17.819 L0.508,0.297 L21.57,16.662 C21.57,16.662 14.074,17.647 13.65,17.819 Z" id="path-19"></path>
        <linearGradient x1="67.439%" y1="48.825%" x2="78.831%" y2="48.825%" id="linearGradient-21">
            <stop stop-color="#8489F8" offset="0%"></stop>
            <stop stop-color="#8B9BFB" offset="100%"></stop>
        </linearGradient>
        <path d="M31.938,7.644 L31.348,4.378 C28.519,4.501 21.51,4.978 15.144,3.774 C12.524,3.278 0.384,0.304 0.384,0.304 C11.655,6.54 31.938,7.644 31.938,7.644" id="path-22"></path>
        <linearGradient x1="-0.001%" y1="49.987%" x2="100.001%" y2="49.987%" id="linearGradient-24">
            <stop stop-color="#8489F8" offset="0%"></stop>
            <stop stop-color="#8B9BFB" offset="100%"></stop>
        </linearGradient>
    </defs>
    <g id="Page-1" stroke="none" stroke-width="1" fill="none" fill-rule="evenodd">
        <g id="icons_bu-(1)">
       <g id="edit_members" transform="translate(5.000000, 1171.000000)" stroke="#0065FF">
                <circle id="Oval" cx="13.5" cy="13.5" r="13.5"></circle>
                <g id="Path-7449" stroke-linecap="round" transform="translate(7.000000, 7.000000)">
                    <path d="M7.756,3.151 L9.848,5.243 L4.209,10.883 L2.118,8.791 L7.756,3.151 Z M12.293,1.789 L11.36,0.856 C10.9985539,0.495414438 10.4134461,0.495414438 10.052,0.856 L9.929,0.979 L8.795,2.113 L10.887,4.206 L12.293,2.797 C12.571221,2.51859446 12.571221,2.06740554 12.293,1.789 Z M0.508,12.245 C0.490199568,12.3251495 0.514966362,12.4088142 0.573527648,12.4663588 C0.632088935,12.5239034 0.716174463,12.5472013 0.796,12.528 L2.923,11.757 L2.323,11.157 L1.223,10.057 L0.508,12.245 Z" id="Path_7449"></path>
                </g>
            </g>
        
        </g>
    </g>
    </svg>