<?xml version="1.0" encoding="UTF-8"?>
<svg width="175px" height="515.5px" viewBox="0 770 175 515.5" version="1.1" xmlns="http://www.w3.org/2000/svg" xmlns:xlink="http://www.w3.org/1999/xlink">

<!-- Generator: Sketch 59.1 (86144) - https://sketch.com -->
    <title>icons_bu (1)</title>
    <desc>Created with Sketch.</desc>
    <g id="Page-1" stroke="none" stroke-width="1" fill="none" fill-rule="evenodd">
     <g id="Group-2" transform="translate(1.000000, 773.000000)" fill="#1a7749" fill-rule="nonzero" stroke="#1a7749">
                <g id="Group_5039" stroke-width="0.5">
                    <path d="M73.27,28.406 C73.007,24.926 72.13,22.763 70.375,21.213 C70.6091133,18.1075881 70.5897157,14.9882602 70.317,11.886 C69.644,4.43 66.37,0.336 61.048,0.336 C55.668,0.336 52.539,4.225 51.779,11.886 C51.5030955,14.9881095 51.4836963,18.1076991 51.721,21.213 C50.6729314,22.0910443 49.9147719,23.2654071 49.546,24.582 C50.282,25.059 49.346,24.392 50.116,24.932 C50.2726982,23.7302383 50.8769123,22.6317971 51.808,21.856 C51.8630183,22.2614794 51.9800522,22.6560894 52.155,23.026 C52.184,23.055 52.213,23.114 52.243,23.143 C53.0232597,23.5453811 53.8810573,23.774923 54.758,23.816 C54.7587417,23.8617409 54.7800452,23.9047152 54.816,23.933 C56.3697748,25.6892427 58.6112798,26.681857 60.956,26.652 L61.014,26.652 C63.4003363,26.6898907 65.6847692,25.6862299 67.271,23.903 C67.3,23.874 67.3,23.845 67.329,23.815 C68.2026863,23.7921472 69.056845,23.5515391 69.814,23.115 L69.902,23.027 C70.0740804,22.6556901 70.1922727,22.2617159 70.253,21.857 C71.715,23.29 72.475,25.307 72.738,28.465 L72.767,28.965 C72.767,29.082 72.767,29.14 72.533,29.165 C68.7109346,29.6281072 64.8628616,29.8428911 61.013,29.808 C60.513,29.808 59.931,29.808 59.346,29.779 C59.3846627,29.9515267 59.3944622,30.1292687 59.375,30.305 C59.96,30.305 60.545,30.334 61.012,30.334 C64.8811423,30.3549746 68.7479697,30.1402436 72.591,29.691 C72.7814186,29.696195 72.9647699,29.618739 73.0937919,29.4785978 C73.2228139,29.3384565 73.2848831,29.1493413 73.264,28.96 L73.27,28.406 Z M61.019,26.125 L60.99,26.125 C58.9083682,26.1494479 56.9089442,25.313641 55.464,23.815 C55.9678338,23.7902064 56.4676231,23.7121038 56.955,23.582 C58.0064635,24.7068661 59.4792413,25.3425089 61.019,25.336 L61.048,25.336 C62.6062237,25.348993 64.0997208,24.7136319 65.171,23.582 C65.658342,23.7124342 66.1581311,23.790872 66.662,23.816 C65.171077,25.3177525 63.1349969,26.1508748 61.019,26.125 Z M58.27,22.704 C58.0069203,22.4397364 57.7896225,22.1335594 57.627,21.798 L57.656,21.769 C58.1258078,20.5707457 58.2973975,19.276273 58.156,17.997 C58.9909423,18.6553397 60.0170289,19.0248572 61.08,19.05 C62.1173223,19.0369726 63.1225068,18.688228 63.945,18.056 C63.8003223,19.3159883 63.9721749,20.5921659 64.445,21.769 L64.445,21.769 C64.2678281,22.0981939 64.0623889,22.4113716 63.831,22.705 C63.7814026,22.7722232 63.7605395,22.8563949 63.773,22.939 C63.802,23.027 63.831,23.085 63.919,23.114 C64.1348657,23.2219571 64.3601332,23.3099888 64.592,23.377 C63.6450025,24.2944055 62.3723307,24.7980065 61.054,24.777 L61.025,24.777 C59.7162837,24.7923818 58.4546982,24.289042 57.516,23.377 C57.745506,23.2920511 57.9701771,23.1945712 58.189,23.085 C58.2741267,23.0546498 58.3320326,22.9753266 58.335,22.885 C58.355,22.851 58.329,22.763 58.27,22.704 Z M55.346,12.383 C55.6660189,11.6638328 55.929809,10.9209409 56.135,10.161 C56.3664493,9.29321908 56.6595269,8.44306007 57.012,7.617 C57.7823296,6.06144927 59.2286955,4.94954163 60.93,4.605 C61.486,5.482 64.23,9.605 67.597,9.722 C67.509,10.422 67.334,11.506 67.012,11.681 C66.9484791,11.7251398 66.8980407,11.7855967 66.866,11.856 C66.106,15.803 63.737,18.523 61.047,18.523 C58.533,18.523 56.194,16.009 55.346,12.383 Z M69.498,22.704 C67.9066647,23.4744066 66.0571714,23.5065844 64.44,22.792 C65.3275745,21.5609494 65.8357649,20.0972081 65.902,18.581 C65.902,18.4357491 65.7842509,18.318 65.639,18.318 C65.4937491,18.318 65.376,18.4357491 65.376,18.581 C65.3661575,19.4824126 65.1564524,20.3704145 64.762,21.181 C64.4384136,20.0099771 64.3490404,18.7866181 64.499,17.581 C66.0063662,16.0929032 67.0084885,14.1691084 67.364,12.081 C67.8489835,11.3966033 68.1140733,10.5807546 68.124,9.742 C68.1919456,9.74604731 68.2600022,9.73617911 68.324,9.713 C68.4220327,9.7076556 68.509077,9.64854969 68.5502036,9.55940046 C68.5913301,9.47025123 68.5797983,9.36566997 68.5202357,9.28762334 C68.4606732,9.20957672 68.3628419,9.17085632 68.266,9.187 C64.582,9.687 61.307,4.245 61.278,4.187 C61.2270182,4.09286201 61.1190565,4.04483343 61.015,4.07 C59.0646019,4.38870482 57.3884045,5.63020834 56.515,7.403 C56.1532738,8.24469159 55.8599906,9.11417452 55.638,10.003 C55.3783645,11.4728466 54.6621062,12.8234852 53.591,13.863 C53.4798937,13.9608486 53.4670287,14.1294244 53.562,14.243 C53.6129079,14.2997321 53.6857798,14.3317957 53.762,14.331 C53.8239371,14.3249986 53.8837388,14.3051786 53.937,14.273 C54.351831,13.9254764 54.7089318,13.5143717 54.995,13.055 C55.4373446,14.763109 56.3361136,16.3186707 57.595,17.555 L57.595,17.584 C57.741015,18.7754318 57.6732872,19.9833586 57.395,21.151 C57.2848311,20.7214495 57.264406,20.2737982 57.335,19.836 C57.3593005,19.6979288 57.2670712,19.5663005 57.129,19.542 C56.9909288,19.5176995 56.8593005,19.6099288 56.835,19.748 C56.6500232,20.8556577 56.9599721,21.9887256 57.683,22.848 C56.0575639,23.5203816 54.226063,23.4885168 52.625,22.76 C52.4561149,22.3286737 52.347753,21.8760442 52.303,21.415 C52.3106763,21.3644401 52.3004166,21.312788 52.274,21.269 C52.0336365,18.1836089 52.0433349,15.0838267 52.303,12 C53.036,4.576 55.99,0.862 61.048,0.862 C67.802,0.862 69.44,7.792 69.791,11.944 C70.055,14.636 70.288,21.009 69.498,22.704 Z" id="Path_7594"></path>
                    <path d="M8,11.766 C8.785,15.698 11.353,18.332 14.417,18.332 C17.481,18.332 20.039,15.708 20.828,11.788 C21.3602284,11.2417204 21.6506473,10.5045033 21.634,9.742 C21.804,8.39 21.571,7.465 20.991,7.142 C21.288928,5.38811908 20.823962,3.59046858 19.713,2.201 C18.253,0.464 15.802,-0.175 13.086,0.501 C11.6863319,0.351831429 10.2990033,0.876255013 9.348,1.914 C8.16609482,3.3731406 7.62921417,5.25059814 7.861,7.114 C7.269,7.431 7.017,8.379 7.185,9.719 C7.1784069,10.4816795 7.47099678,11.2165648 8,11.766 Z M9.74,2.28 C10.4856137,1.46155023 11.5469882,1.00298109 12.654,1.021 C12.7953333,1.021 12.9383333,1.02766667 13.083,1.041 C13.1131773,1.04405916 13.1436586,1.04168839 13.173,1.034 C15.732,0.383 17.956,0.941 19.304,2.546 C20.3386363,3.85155057 20.7540246,5.5426702 20.442,7.179 L20.252,7.35 L19.852,6.685 C19.7800968,6.56881197 19.6320782,6.52565784 19.509,6.585 C18.3174807,6.97834645 17.0417247,7.04192693 15.817,6.769 C14.8355636,6.61530462 13.8720563,6.36337225 12.941,6.017 C12.2337495,5.72926728 11.4855714,5.55479364 10.724,5.5 C9.67968763,5.54168464 8.79385543,6.28022006 8.565,7.3 L8.406,7.169 C8.16319358,5.42562399 8.64490525,3.65886604 9.739,2.28 L9.74,2.28 Z M8.1,7.605 L8.541,7.967 C8.61362808,8.02640691 8.71210898,8.0433306 8.80040264,8.01157766 C8.8886963,7.97982471 8.95384237,7.90405607 8.972,7.812 C8.987,7.737 9.363,5.985 10.698,6.029 C11.4070238,6.08233916 12.1032214,6.24702381 12.761,6.517 C13.7227184,6.87469072 14.7181022,7.13434148 15.732,7.292 C16.9844342,7.54083429 18.2777921,7.49219636 19.508,7.15 L19.965,7.899 C20.006111,7.96685893 20.0754642,8.01272745 20.154,8.024 C20.1666466,8.02500857 20.1793534,8.02500857 20.192,8.024 C20.2581366,8.02387459 20.3218911,7.99929881 20.371,7.955 L20.743,7.619 C21.09,7.84 21.236,8.626 21.105,9.668 C21.005,10.428 20.865,11.162 20.462,11.382 C20.3916391,11.4199336 20.3420675,11.4874979 20.327,11.566 C19.615,15.29 17.24,17.792 14.417,17.792 C11.594,17.792 9.211,15.282 8.502,11.546 C8.48738194,11.467877 8.43859591,11.4003836 8.369,11.362 C7.952,11.132 7.804,10.369 7.714,9.653 C7.581,8.614 7.737,7.824 8.1,7.605 Z M14.759,30.48 L17.97,23.155 C17.9827768,23.1259445 17.9899037,23.0947217 17.991,23.063 L19.221,23.502 C19.2499221,23.5121076 19.2803631,23.5171811 19.311,23.517 C19.3840416,23.5171012 19.4539111,23.4871628 19.5042185,23.4342076 C19.554526,23.3812524 19.5808444,23.3099404 19.577,23.237 L19.361,19.205 C20.3770924,19.5040349 21.3539677,19.9229835 22.271,20.453 L22.39,20.524 C23.1394618,20.9704413 23.8335988,21.503799 24.458,22.113 L24.971,21.865 C24.2889005,21.1759982 23.5225012,20.5759153 22.69,20.079 C22.615,20.034 22.539,19.989 22.463,19.946 C21.4303891,19.36069 20.3280034,18.9081104 19.182,18.599 C19.1647917,18.5912888 19.1466315,18.585908 19.128,18.583 C19.091,18.573 19.055,18.56 19.018,18.55 C18.8968705,18.5162736 18.7688614,18.573353 18.713,18.686 C17.8274522,20.2387747 16.189256,21.2100642 14.402,21.242 L14.402,21.242 C12.6002828,21.1719258 10.9468425,20.2247552 9.975,18.706 C9.975,18.706 9.966,18.7 9.963,18.696 C9.93628403,18.6520303 9.89689234,18.6171704 9.85,18.596 L9.833,18.596 C9.80975283,18.5860544 9.78514607,18.5796499 9.76,18.577 C9.73361291,18.5756865 9.70720235,18.5790725 9.682,18.587 L9.671,18.587 L9.649,18.594 C4.543,19.994 1.271,23.656 0.894,28.402 L0.857,28.944 C0.845493243,29.1353907 0.914609712,29.3228627 1.04759871,29.4609813 C1.18058771,29.5990999 1.36531099,29.6752586 1.557,29.671 C5.75955478,30.1294388 9.98454286,30.3514551 14.212,30.336 L14.988,30.336 M18.846,19.474 L19.027,22.874 L15.594,21.651 C16.9049142,21.3434033 18.0590752,20.5692232 18.841,19.473 L18.846,19.474 Z M14.409,29.805 L14.4,29.805 L11.339,22.943 C11.329993,22.9271953 11.3192607,22.9124384 11.307,22.899 L14.407,21.792 L17.512,22.899 C17.4997199,22.9124226 17.488986,22.9271817 17.48,22.943 L14.419,29.805 L14.409,29.805 Z M13.226,21.649 L9.795,22.871 L9.969,19.607 C10.8006878,20.6265819 11.9455239,21.3432907 13.226,21.646 L13.226,21.649 Z M1.387,28.964 L1.423,28.443 C1.773,24.036 4.768,20.609 9.457,19.208 L9.241,23.242 C9.23653153,23.3309969 9.27675569,23.4163571 9.3482352,23.4695652 C9.41971471,23.5227732 9.51302692,23.5368151 9.597,23.507 L10.827,23.068 C10.828396,23.099682 10.8355105,23.1308502 10.848,23.16 L13.811,29.8012572 C9.73764681,29.8054851 5.66714158,29.5854848 1.618,29.142 C1.388,29.111 1.388,29.059 1.388,28.962 L1.387,28.964 Z" id="Path_7595"></path>
                </g>
                <g id="Group_5040" transform="translate(20.218000, 10.151000)" stroke-width="0.7">
                    <path d="M5.45,7.674 C5.979,10.323 7.709,12.097 9.773,12.097 C11.837,12.097 13.56,10.329 14.093,7.688 C14.4516493,7.31977996 14.6473047,6.82289447 14.636,6.309 C14.754,5.368 14.583,4.735 14.164,4.539 C13.734,1.89 12.02,0.184 9.774,0.184 C7.528,0.184 5.818,1.884 5.385,4.53 C4.966,4.73 4.785,5.375 4.901,6.299 C4.89762242,6.81140177 5.09463637,7.30483381 5.45,7.674 Z M5.59,4.837 C5.66019531,4.81912168 5.71269615,4.7606997 5.723,4.689 C6.099,2.171 7.689,0.544 9.773,0.544 C11.857,0.544 13.451,2.175 13.825,4.698 C13.8357078,4.76985416 13.8885597,4.82822796 13.959,4.846 C14.248,4.919 14.377,5.489 14.28,6.264 C14.216,6.776 14.119,7.271 13.847,7.419 C13.7996453,7.44464016 13.7662576,7.49013537 13.756,7.543 C13.276,10.052 11.676,11.737 9.774,11.737 C7.872,11.737 6.266,10.046 5.789,7.529 C5.77919386,7.47651189 5.74659023,7.43108662 5.7,7.405 C5.419,7.25 5.319,6.736 5.259,6.254 C5.161,5.482 5.294,4.912 5.59,4.836 L5.59,4.837 Z" id="Path_7590-2"></path>
                    <path d="M18.875,18.88 C18.619,15.646 16.375,13.166 12.875,12.246 C12.7935655,12.225014 12.7084525,12.263211 12.67,12.338 C12.0810664,13.3895298 10.9751422,14.0462199 9.77,14.06 C8.55594305,14.0126969 7.44183324,13.3744087 6.787,12.351 C6.74554187,12.2827502 6.66443672,12.2494971 6.587,12.269 C3.136,13.207 0.924,15.679 0.67,18.883 L0.645,19.248 C0.637177219,19.3765311 0.683351562,19.5024949 0.772389705,19.5955199 C0.861427848,19.6885448 0.985249713,19.7401889 1.114,19.738 C3.94536276,20.0469436 6.79185135,20.1965128 9.64,20.186 L9.921,20.186 C12.7664856,20.1964259 15.6103069,20.0468565 18.439,19.738 C18.5691567,19.7392094 18.6938619,19.6858109 18.7828094,19.5907816 C18.8717568,19.4957522 18.9168028,19.3677926 18.907,19.238 L18.875,18.88 Z M18.386,19.38 C12.6563606,19.974127 6.88063939,19.974127 1.151,19.38 C0.996,19.36 0.996,19.325 0.995,19.259 L1.019,18.908 C1.30843497,15.843776 3.54103315,13.3158948 6.546,12.65 C7.26593035,13.7292391 8.4670088,14.3894963 9.764,14.419 C11.054427,14.410951 12.2480223,13.7331161 12.916,12.629 C16.187,13.536 18.278,15.875 18.516,18.907 L18.5404272,19.247 C18.541,19.325 18.541,19.361 18.386,19.38 Z" id="Path_7591-2"></path>
                </g>
                <g id="Group_5041" transform="translate(38.218000, 15.613000)" stroke-width="0.7">
                    <path d="M4.135,5.628 C4.52,7.554 5.777,8.843 7.277,8.843 C8.777,8.843 10.03,7.558 10.417,5.643 C10.6772823,5.37602163 10.8195767,5.01578265 10.812,4.643 C10.898,3.959 10.773,3.499 10.469,3.357 C10.157,1.431 8.911,0.192 7.278,0.192 C5.645,0.192 4.402,1.429 4.088,3.351 C3.788,3.495 3.653,3.965 3.736,4.637 C3.7356686,5.00653517 3.87870246,5.3617897 4.135,5.628 L4.135,5.628 Z M4.235,3.566 C4.28716409,3.55428895 4.32683968,3.51183607 4.335,3.459 C4.608,1.629 5.764,0.446 7.279,0.446 C8.794,0.446 9.952,1.631 10.224,3.466 C10.2324212,3.51870883 10.2719805,3.56103721 10.324,3.573 C10.534,3.626 10.624,4.041 10.557,4.604 C10.51,4.976 10.44,5.336 10.242,5.443 C10.2076818,5.46165926 10.1834811,5.49466022 10.176,5.533 C9.827,7.357 8.664,8.582 7.282,8.582 C5.9,8.582 4.732,7.353 4.382,5.523 C4.37474483,5.48484832 4.35093598,5.45188221 4.317,5.433 C4.117,5.321 4.04,4.947 3.996,4.596 C3.925,4.035 4.022,3.621 4.237,3.566 L4.235,3.566 Z" id="Path_7590-3"></path>
                    <path d="M13.894,13.773 C13.6687869,11.3768263 11.893677,9.41452008 9.532,8.951 C9.47278456,8.93583542 9.41095233,8.96363917 9.383,9.018 C8.95429871,9.78372205 8.14851976,10.2613903 7.271,10.27 C6.38746016,10.2361371 5.57648564,9.77181593 5.1,9.027 C5.06984927,8.97647233 5.00989605,8.95200163 4.953,8.967 C2.61955888,9.45116975 0.875168429,11.401236 0.653,13.774 L0.635,14.039 C0.629417561,14.1324001 0.663033824,14.2238977 0.727756672,14.2914676 C0.792479519,14.3590375 0.882446235,14.396559 0.976,14.395 C3.03492333,14.6197821 5.10485679,14.7286205 7.176,14.721 L7.376,14.721 C9.44447875,14.7284746 11.5117416,14.6196362 13.568,14.395 C13.6630435,14.3961479 13.7541777,14.3572242 13.8190662,14.2877687 C13.8839548,14.2183133 13.9165997,14.1247461 13.909,14.03 L13.894,13.773 Z M13.538,14.137 C9.37316576,14.5688713 5.17483424,14.5688713 1.01,14.137 C0.897,14.123 0.897,14.097 0.897,14.049 L0.915,13.794 C1.12501783,11.5666414 2.74774446,9.72900553 4.932,9.245 C5.45527276,10.0294801 6.32825974,10.509455 7.271,10.531 C8.2085854,10.5248484 9.07585432,10.0327273 9.562,9.231 C11.7713993,9.69740655 13.42105,11.5459714 13.634,13.794 L13.652,14.041 C13.651,14.097 13.651,14.127 13.538,14.137 Z" id="Path_7591-3"></path>
                </g>
            </g>
    </g>
    </svg>