<?xml version="1.0" encoding="UTF-8"?>
<svg width="175px" height="515.5px" viewBox="0 595 175 515.5" version="1.1" xmlns="http://www.w3.org/2000/svg" xmlns:xlink="http://www.w3.org/1999/xlink">
 
    <!-- Generator: Sketch 59.1 (86144) - https://sketch.com -->
    <title>icons_bu (1)</title>
    <desc>Created with Sketch.</desc>
    <g id="Page-1" stroke="none" stroke-width="1" fill="none" fill-rule="evenodd">
     <g id="Group" transform="translate(1.000000, 599.000000)" fill="#1a7749" fill-rule="nonzero" stroke="#1a7749">
                <g id="Group_5035" stroke-width="0.5">
                    <path d="M8,11.767 C8.785,15.699 11.353,18.333 14.417,18.333 C17.481,18.333 20.039,15.709 20.828,11.789 C21.3602284,11.2427204 21.6506473,10.5055033 21.634,9.743 C21.804,8.391 21.571,7.466 20.991,7.143 C21.288928,5.38911908 20.823962,3.59146858 19.713,2.202 C18.253,0.465 15.802,-0.174 13.086,0.502 C11.6863319,0.352831429 10.2990033,0.877255013 9.348,1.915 C8.16609482,3.3741406 7.62921417,5.25159814 7.861,7.115 C7.269,7.432 7.017,8.38 7.185,9.72 C7.1784069,10.4826795 7.47099678,11.2175648 8,11.767 Z M9.74,2.281 C10.4856137,1.46255023 11.5469882,1.00398109 12.654,1.022 C12.7953333,1.022 12.9383333,1.02866667 13.083,1.042 C13.1131773,1.04505916 13.1436586,1.04268839 13.173,1.035 C15.732,0.384 17.956,0.942 19.304,2.547 C20.3386363,3.85255057 20.7540246,5.5436702 20.442,7.18 L20.252,7.351 L19.852,6.686 C19.7800968,6.56981197 19.6320782,6.52665784 19.509,6.586 C18.3174807,6.97934645 17.0417247,7.04292693 15.817,6.77 C14.8355636,6.61630462 13.8720563,6.36437225 12.941,6.018 C12.2337495,5.73026728 11.4855714,5.55579364 10.724,5.501 C9.67968763,5.54268464 8.79385543,6.28122006 8.565,7.301 L8.406,7.17 C8.16319358,5.42662399 8.64490525,3.65986604 9.739,2.281 L9.74,2.281 Z M8.1,7.606 L8.541,7.968 C8.61362808,8.02740691 8.71210898,8.0443306 8.80040264,8.01257766 C8.8886963,7.98082471 8.95384237,7.90505607 8.972,7.813 C8.987,7.738 9.363,5.986 10.698,6.03 C11.4070238,6.08333916 12.1032214,6.24802381 12.761,6.518 C13.7227184,6.87569072 14.7181022,7.13534148 15.732,7.293 C16.9844342,7.54183429 18.2777921,7.49319636 19.508,7.151 L19.965,7.9 C20.006111,7.96785893 20.0754642,8.01372745 20.154,8.025 C20.1666466,8.02600857 20.1793534,8.02600857 20.192,8.025 C20.2581366,8.02487459 20.3218911,8.00029881 20.371,7.956 L20.743,7.62 C21.09,7.841 21.236,8.627 21.105,9.669 C21.005,10.429 20.865,11.163 20.462,11.383 C20.3916391,11.4209336 20.3420675,11.4884979 20.327,11.567 C19.615,15.291 17.24,17.793 14.417,17.793 C11.594,17.793 9.211,15.283 8.502,11.547 C8.48738194,11.468877 8.43859591,11.4013836 8.369,11.363 C7.952,11.133 7.804,10.37 7.714,9.654 C7.581,8.615 7.737,7.825 8.1,7.606 Z M14.759,30.481 L17.97,23.156 C17.9827768,23.1269445 17.9899037,23.0957217 17.991,23.064 L19.221,23.503 C19.2499221,23.5131076 19.2803631,23.5181811 19.311,23.518 C19.3840416,23.5181012 19.4539111,23.4881628 19.5042185,23.4352076 C19.554526,23.3822524 19.5808444,23.3109404 19.577,23.238 L19.361,19.206 C20.3770924,19.5050349 21.3539677,19.9239835 22.271,20.454 L22.39,20.525 C23.1394618,20.9714413 23.8335988,21.504799 24.458,22.114 L24.971,21.866 C24.2889005,21.1769982 23.5225012,20.5769153 22.69,20.08 C22.615,20.035 22.539,19.99 22.463,19.947 C21.4303891,19.36169 20.3280034,18.9091104 19.182,18.6 C19.1647917,18.5922888 19.1466315,18.586908 19.128,18.584 C19.091,18.574 19.055,18.561 19.018,18.551 C18.8968705,18.5172736 18.7688614,18.574353 18.713,18.687 C17.8274522,20.2397747 16.189256,21.2110642 14.402,21.243 L14.402,21.243 C12.6002828,21.1729258 10.9468425,20.2257552 9.975,18.707 C9.975,18.707 9.966,18.701 9.963,18.697 C9.93628403,18.6530303 9.89689234,18.6181704 9.85,18.597 L9.833,18.597 C9.80975283,18.5870544 9.78514607,18.5806499 9.76,18.578 C9.73361291,18.5766865 9.70720235,18.5800725 9.682,18.588 L9.671,18.588 L9.649,18.595 C4.543,19.995 1.271,23.657 0.894,28.403 L0.857,28.945 C0.845493243,29.1363907 0.914609712,29.3238627 1.04759871,29.4619813 C1.18058771,29.6000999 1.36531099,29.6762586 1.557,29.672 C5.75955478,30.1304388 9.98454286,30.3524551 14.212,30.337 L14.988,30.337 M18.846,19.475 L19.027,22.875 L15.594,21.652 C16.9049142,21.3444033 18.0590752,20.5702232 18.841,19.474 L18.846,19.475 Z M14.409,29.806 L14.4,29.806 L11.339,22.944 C11.329993,22.9281953 11.3192607,22.9134384 11.307,22.9 L14.407,21.793 L17.512,22.9 C17.4997199,22.9134226 17.488986,22.9281817 17.48,22.944 L14.419,29.806 L14.409,29.806 Z M13.226,21.65 L9.795,22.872 L9.969,19.608 C10.8006878,20.6275819 11.9455239,21.3442907 13.226,21.647 L13.226,21.65 Z M1.387,28.965 L1.423,28.444 C1.773,24.037 4.768,20.61 9.457,19.209 L9.241,23.243 C9.23653153,23.3319969 9.27675569,23.4173571 9.3482352,23.4705652 C9.41971471,23.5237732 9.51302692,23.5378151 9.597,23.508 L10.827,23.069 C10.828396,23.100682 10.8355105,23.1318502 10.848,23.161 L13.811,29.8022572 C9.73764681,29.8064851 5.66714158,29.5864848 1.618,29.143 C1.388,29.112 1.388,29.06 1.388,28.963 L1.387,28.965 Z" id="Path_7589"></path>
                    <path d="M62.27,28.406 C62.007,24.926 61.13,22.763 59.375,21.213 C59.6091133,18.1075881 59.5897157,14.9882602 59.317,11.886 C58.644,4.43 55.37,0.336 50.048,0.336 C44.668,0.336 41.539,4.225 40.779,11.886 C40.5030955,14.9881095 40.4836963,18.1076991 40.721,21.213 C39.6729314,22.0910443 38.9147719,23.2654071 38.546,24.582 C39.282,25.059 38.346,24.392 39.116,24.932 C39.2726982,23.7302383 39.8769123,22.6317971 40.808,21.856 C40.8630183,22.2614794 40.9800522,22.6560894 41.155,23.026 C41.184,23.055 41.213,23.114 41.243,23.143 C42.0232597,23.5453811 42.8810573,23.774923 43.758,23.816 C43.7587417,23.8617409 43.7800452,23.9047152 43.816,23.933 C45.3697748,25.6892427 47.6112798,26.681857 49.956,26.652 L50.014,26.652 C52.4003363,26.6898907 54.6847692,25.6862299 56.271,23.903 C56.3,23.874 56.3,23.845 56.329,23.815 C57.2026863,23.7921472 58.056845,23.5515391 58.814,23.115 L58.902,23.027 C59.0740804,22.6556901 59.1922727,22.2617159 59.253,21.857 C60.715,23.29 61.475,25.307 61.738,28.465 L61.767,28.965 C61.767,29.082 61.767,29.14 61.533,29.165 C57.7109346,29.6281072 53.8628616,29.8428911 50.013,29.808 C49.513,29.808 48.931,29.808 48.346,29.779 C48.3846627,29.9515267 48.3944622,30.1292687 48.375,30.305 C48.96,30.305 49.545,30.334 50.012,30.334 C53.8811423,30.3549746 57.7479697,30.1402436 61.591,29.691 C61.7814186,29.696195 61.9647699,29.618739 62.0937919,29.4785978 C62.2228139,29.3384565 62.2848831,29.1493413 62.264,28.96 L62.27,28.406 Z M50.019,26.125 L49.99,26.125 C47.9083682,26.1494479 45.9089442,25.313641 44.464,23.815 C44.9678338,23.7902064 45.4676231,23.7121038 45.955,23.582 C47.0064635,24.7068661 48.4792413,25.3425089 50.019,25.336 L50.048,25.336 C51.6062237,25.348993 53.0997208,24.7136319 54.171,23.582 C54.658342,23.7124342 55.1581311,23.790872 55.662,23.816 C54.171077,25.3177525 52.1349969,26.1508748 50.019,26.125 Z M47.27,22.704 C47.0069203,22.4397364 46.7896225,22.1335594 46.627,21.798 L46.656,21.769 C47.1258078,20.5707457 47.2973975,19.276273 47.156,17.997 C47.9909423,18.6553397 49.0170289,19.0248572 50.08,19.05 C51.1173223,19.0369726 52.1225068,18.688228 52.945,18.056 C52.8003223,19.3159883 52.9721749,20.5921659 53.445,21.769 L53.445,21.769 C53.2678281,22.0981939 53.0623889,22.4113716 52.831,22.705 C52.7814026,22.7722232 52.7605395,22.8563949 52.773,22.939 C52.802,23.027 52.831,23.085 52.919,23.114 C53.1348657,23.2219571 53.3601332,23.3099888 53.592,23.377 C52.6450025,24.2944055 51.3723307,24.7980065 50.054,24.777 L50.025,24.777 C48.7162837,24.7923818 47.4546982,24.289042 46.516,23.377 C46.745506,23.2920511 46.9701771,23.1945712 47.189,23.085 C47.2741267,23.0546498 47.3320326,22.9753266 47.335,22.885 C47.355,22.851 47.329,22.763 47.27,22.704 Z M44.346,12.383 C44.6660189,11.6638328 44.929809,10.9209409 45.135,10.161 C45.3664493,9.29321908 45.6595269,8.44306007 46.012,7.617 C46.7823296,6.06144927 48.2286955,4.94954163 49.93,4.605 C50.486,5.482 53.23,9.605 56.597,9.722 C56.509,10.422 56.334,11.506 56.012,11.681 C55.9484791,11.7251398 55.8980407,11.7855967 55.866,11.856 C55.106,15.803 52.737,18.523 50.047,18.523 C47.533,18.523 45.194,16.009 44.346,12.383 Z M58.498,22.704 C56.9066647,23.4744066 55.0571714,23.5065844 53.44,22.792 C54.3275745,21.5609494 54.8357649,20.0972081 54.902,18.581 C54.902,18.4357491 54.7842509,18.318 54.639,18.318 C54.4937491,18.318 54.376,18.4357491 54.376,18.581 C54.3661575,19.4824126 54.1564524,20.3704145 53.762,21.181 C53.4384136,20.0099771 53.3490404,18.7866181 53.499,17.581 C55.0063662,16.0929032 56.0084885,14.1691084 56.364,12.081 C56.8489835,11.3966033 57.1140733,10.5807546 57.124,9.742 C57.1919456,9.74604731 57.2600022,9.73617911 57.324,9.713 C57.4220327,9.7076556 57.509077,9.64854969 57.5502036,9.55940046 C57.5913301,9.47025123 57.5797983,9.36566997 57.5202357,9.28762334 C57.4606732,9.20957672 57.3628419,9.17085632 57.266,9.187 C53.582,9.687 50.307,4.245 50.278,4.187 C50.2270182,4.09286201 50.1190565,4.04483343 50.015,4.07 C48.0646019,4.38870482 46.3884045,5.63020834 45.515,7.403 C45.1532738,8.24469159 44.8599906,9.11417452 44.638,10.003 C44.3783645,11.4728466 43.6621062,12.8234852 42.591,13.863 C42.4798937,13.9608486 42.4670287,14.1294244 42.562,14.243 C42.6129079,14.2997321 42.6857798,14.3317957 42.762,14.331 C42.8239371,14.3249986 42.8837388,14.3051786 42.937,14.273 C43.351831,13.9254764 43.7089318,13.5143717 43.995,13.055 C44.4373446,14.763109 45.3361136,16.3186707 46.595,17.555 L46.595,17.584 C46.741015,18.7754318 46.6732872,19.9833586 46.395,21.151 C46.2848311,20.7214495 46.264406,20.2737982 46.335,19.836 C46.3593005,19.6979288 46.2670712,19.5663005 46.129,19.542 C45.9909288,19.5176995 45.8593005,19.6099288 45.835,19.748 C45.6500232,20.8556577 45.9599721,21.9887256 46.683,22.848 C45.0575639,23.5203816 43.226063,23.4885168 41.625,22.76 C41.4561149,22.3286737 41.347753,21.8760442 41.303,21.415 C41.3106763,21.3644401 41.3004166,21.312788 41.274,21.269 C41.0336365,18.1836089 41.0433349,15.0838267 41.303,12 C42.036,4.576 44.99,0.862 50.048,0.862 C56.802,0.862 58.44,7.792 58.791,11.944 C59.055,14.636 59.288,21.009 58.498,22.704 Z" id="Path_7593"></path>
                </g>
                <g id="Group_5038" transform="translate(20.218000, 10.151000)" stroke-width="0.7">
                    <path d="M5.45,7.674 C5.979,10.323 7.709,12.097 9.773,12.097 C11.837,12.097 13.56,10.329 14.093,7.688 C14.4516493,7.31977996 14.6473047,6.82289447 14.636,6.309 C14.754,5.368 14.583,4.735 14.164,4.539 C13.734,1.89 12.02,0.184 9.774,0.184 C7.528,0.184 5.818,1.884 5.385,4.53 C4.966,4.73 4.785,5.375 4.901,6.299 C4.89762242,6.81140177 5.09463637,7.30483381 5.45,7.674 Z M5.59,4.837 C5.66019531,4.81912168 5.71269615,4.7606997 5.723,4.689 C6.099,2.171 7.689,0.544 9.773,0.544 C11.857,0.544 13.451,2.175 13.825,4.698 C13.8357078,4.76985416 13.8885597,4.82822796 13.959,4.846 C14.248,4.919 14.377,5.489 14.28,6.264 C14.216,6.776 14.119,7.271 13.847,7.419 C13.7996453,7.44464016 13.7662576,7.49013537 13.756,7.543 C13.276,10.052 11.676,11.737 9.774,11.737 C7.872,11.737 6.266,10.046 5.789,7.529 C5.77919386,7.47651189 5.74659023,7.43108662 5.7,7.405 C5.419,7.25 5.319,6.736 5.259,6.254 C5.161,5.482 5.294,4.912 5.59,4.836 L5.59,4.837 Z" id="Path_7590"></path>
                    <path d="M18.875,18.88 C18.619,15.646 16.375,13.166 12.875,12.246 C12.7935655,12.225014 12.7084525,12.263211 12.67,12.338 C12.0810664,13.3895298 10.9751422,14.0462199 9.77,14.06 C8.55594305,14.0126969 7.44183324,13.3744087 6.787,12.351 C6.74554187,12.2827502 6.66443672,12.2494971 6.587,12.269 C3.136,13.207 0.924,15.679 0.67,18.883 L0.645,19.248 C0.637177219,19.3765311 0.683351562,19.5024949 0.772389705,19.5955199 C0.861427848,19.6885448 0.985249713,19.7401889 1.114,19.738 C3.94536276,20.0469436 6.79185135,20.1965128 9.64,20.186 L9.921,20.186 C12.7664856,20.1964259 15.6103069,20.0468565 18.439,19.738 C18.5691567,19.7392094 18.6938619,19.6858109 18.7828094,19.5907816 C18.8717568,19.4957522 18.9168028,19.3677926 18.907,19.238 L18.875,18.88 Z M18.386,19.38 C12.6563606,19.974127 6.88063939,19.974127 1.151,19.38 C0.996,19.36 0.996,19.325 0.995,19.259 L1.019,18.908 C1.30843497,15.843776 3.54103315,13.3158948 6.546,12.65 C7.26593035,13.7292391 8.4670088,14.3894963 9.764,14.419 C11.054427,14.410951 12.2480223,13.7331161 12.916,12.629 C16.187,13.536 18.278,15.875 18.516,18.907 L18.5404272,19.247 C18.541,19.325 18.541,19.361 18.386,19.38 Z" id="Path_7591"></path>
                </g>
            </g>
    </g>
    </svg>