<?xml version="1.0" encoding="UTF-8"?>
<svg width="175px" height="1579px" viewBox="0 0 175 1579" version="1.1" xmlns="http://www.w3.org/2000/svg" xmlns:xlink="http://www.w3.org/1999/xlink">

   <!-- Generator: Sketch 59.1 (86144) - https://sketch.com -->
    <title>icons_bu (1)</title>
    <desc>Created with Sketch.</desc>
    <g id="Page-1" stroke="none" stroke-width="1" fill="none" fill-rule="evenodd">
     <g id="Group_5014" fill="#03aa7d" fill-rule="nonzero" stroke="#03aa7d" stroke-width="0.5">
                <path d="M7.042,11 C7.773,14.658 10.162,17.108 13.012,17.108 C15.862,17.108 18.242,14.666 18.977,11.02 C19.4713343,10.5126469 19.7415063,9.82821121 19.727,9.12 C19.886,7.862 19.668,7.002 19.127,6.703 C19.4056903,5.07023103 18.9729924,3.39621057 17.938,2.103 C16.58,0.487 14.3,-0.108 11.773,0.524 C10.4706471,0.385333496 9.17983186,0.873378942 8.295,1.839 C7.19547277,3.19698914 6.69615131,4.94407267 6.912,6.678 C6.361,6.978 6.127,7.855 6.283,9.102 C6.27854429,9.80948728 6.55094372,10.4906653 7.042,11 L7.042,11 Z M8.661,2.175 C9.35420947,1.41189813 10.3421736,0.983853208 11.373,1 C11.504,1 11.637,1.006 11.773,1.019 C11.8011923,1.0218382 11.8296663,1.01946538 11.857,1.012 C14.238,0.407 16.306,0.925 17.557,2.419 C18.5196786,3.63344922 18.9062383,5.20669949 18.616,6.729 L18.439,6.888 L18.062,6.27 C17.9958629,6.16108358 17.8579488,6.120012 17.743,6.175 C16.634724,6.54076848 15.4481309,6.59985626 14.309,6.346 C13.3958077,6.20287632 12.4993055,5.96836528 11.633,5.646 C10.9751992,5.37835096 10.279332,5.21602693 9.571,5.165 C8.60001839,5.20320501 7.7758812,5.88909719 7.562,6.837 L7.414,6.715 C7.19188924,5.09423092 7.64244677,3.45314645 8.661,2.173 L8.661,2.175 Z M7.135,7.132 L7.545,7.469 C7.61246218,7.52401228 7.70382796,7.53962707 7.7857311,7.51014194 C7.86763424,7.48065681 7.92808229,7.41038904 7.945,7.325 C7.959,7.255 8.308,5.625 9.551,5.666 C10.2105195,5.71574531 10.8581049,5.86895206 11.47,6.12 C12.3647221,6.45273672 13.2907508,6.69429485 14.234,6.841 C15.3991907,7.07256821 16.6024725,7.02735523 17.747,6.709 L18.172,7.409 C18.210177,7.47239658 18.2747684,7.51533512 18.348,7.526 C18.3599802,7.52697458 18.3720198,7.52697458 18.384,7.526 C18.4453267,7.52583688 18.5044361,7.5030477 18.55,7.462 L18.896,7.15 C19.218,7.356 19.355,8.087 19.233,9.056 C19.145,9.764 19.01,10.446 18.633,10.65 C18.5678629,10.6854447 18.5220051,10.7481782 18.508,10.821 C17.845,14.285 15.636,16.613 13.008,16.613 C10.38,16.613 8.165,14.278 7.508,10.802 C7.49457826,10.7294984 7.44946798,10.6667841 7.385,10.631 C6.997,10.417 6.86,9.707 6.776,9.041 C6.654,8.065 6.799,7.331 7.136,7.129 L7.135,7.132 Z" id="Path_7549"></path>
                <path d="M25.581,26.472 C25.231,22.055 22.193,18.659 17.447,17.356 C17.4310602,17.3488371 17.4142504,17.3437941 17.397,17.341 C17.362,17.332 17.329,17.319 17.297,17.31 C17.1840893,17.2782451 17.0646104,17.331674 17.013,17.437 C16.1883388,18.8818004 14.6633337,19.785099 13,19.814 L13,19.814 C11.3235192,19.7488142 9.78504922,18.8673408 8.881,17.454 C8.881,17.454 8.872,17.449 8.869,17.445 C8.84373831,17.4049771 8.80720707,17.3733167 8.764,17.354 L8.748,17.354 C8.72631715,17.3447604 8.70341448,17.3386979 8.68,17.336 C8.65532451,17.3346181 8.63060096,17.3376662 8.607,17.345 L8.597,17.345 L8.576,17.351 C3.826,18.651 0.782,22.06 0.431,26.476 L0.397,26.976 C0.386416148,27.153355 0.450150581,27.3271094 0.572904461,27.4555551 C0.695658341,27.5840008 0.866347628,27.6555399 1.044,27.653 C4.95398087,28.0796241 8.88483912,28.2862829 12.818,28.272 L13.206,28.272 C17.1355026,28.2863028 21.0627011,28.0796432 24.969,27.653 C25.1494435,27.6546917 25.3222936,27.5804828 25.4453443,27.4484932 C25.5683951,27.3165037 25.6303206,27.1388823 25.616,26.959 L25.581,26.472 Z M17.129,18.172 L17.298,21.331 L14.104,20.193 C15.3248905,19.9079842 16.4002161,19.1881381 17.129,18.168 L17.129,18.172 Z M13.007,27.782 L12.995,27.782 L10.147,21.398 C10.1388795,21.3833028 10.1291533,21.369552 10.118,21.357 L13.006,20.328 L15.895,21.357 C15.8836118,21.3695947 15.8735582,21.3833346 15.865,21.398 L13.017,27.782 L13.007,27.782 Z M11.907,20.194 L8.715,21.331 L8.877,18.295 C9.65088237,19.242485 10.7154612,19.9085057 11.906,20.19 L11.907,20.194 Z M0.893,27 L0.926,26.515 C1.251,22.415 4.038,19.227 8.401,17.924 L8.201,21.677 C8.19743966,21.7448224 8.22184959,21.8111374 8.26853208,21.8604658 C8.31521457,21.9097943 8.38008447,21.9378195 8.448,21.938 C8.47626714,21.9381565 8.50434815,21.9334199 8.531,21.924 L9.675,21.516 C9.67608641,21.545579 9.68252374,21.5747164 9.694,21.602 L12.45,27.7812397 C8.66061046,27.7851761 4.87386972,27.5805325 1.107,27.168 C0.892,27.135 0.892,27.086 0.891,26.996 L0.893,27 Z M24.907,27.167 C21.140127,27.5794921 17.3533885,27.7841356 13.564,27.7802352 L16.32,21.601 C16.3317902,21.5738172 16.3382408,21.5446199 16.339,21.515 L17.484,21.923 C17.5621861,21.9509057 17.6491493,21.9378399 17.7156831,21.8881908 C17.782217,21.8385416 17.819496,21.758895 17.815,21.676 L17.615,17.924 C21.979,19.224 24.764,22.407 25.089,26.512 L25.122,26.981 C25.12,27.086 25.12,27.135 24.905,27.163 L24.907,27.167 Z" id="Path_7550"></path>
            </g>
    </g>
    </svg>