<?xml version="1.0" encoding="UTF-8"?>
<svg width="175px" height="515.5px" viewBox="0 940 175 515.5" version="1.1" xmlns="http://www.w3.org/2000/svg" xmlns:xlink="http://www.w3.org/1999/xlink">

 <!-- Generator: Sketch 59.1 (86144) - https://sketch.com -->
    <title>icons_bu (1)</title>
    <desc>Created with Sketch.</desc>
    <g id="Page-1" stroke="none" stroke-width="1" fill="none" fill-rule="evenodd">
     <g id="Group_5018" transform="translate(1.582000, 943.867000)" stroke="#aeb6bf">
        <path d="M7.858,12.638 C8.705,16.877 11.473,19.715 14.775,19.715 C18.077,19.715 20.835,16.886 21.686,12.661 C22.2598698,12.072016 22.5729941,11.2771344 22.555,10.455 C22.745,8.955 22.47,7.936 21.799,7.623 C21.111,3.384 18.368,0.656 14.775,0.656 C11.182,0.656 8.445,3.379 7.753,7.609 C7.083,7.927 6.795,8.961 6.979,10.44 C6.97434307,11.2592243 7.28973806,12.0478912 7.858,12.638 Z M14.775,1.231 C17.75,1.231 20.09,3.304 20.989,6.611 C19.3901886,6.34968026 17.9517116,5.48716647 16.968,4.2 C16.9080731,4.12539282 16.8149032,4.08556199 16.719563,4.09379135 C16.6242229,4.10202071 16.5392562,4.15722754 16.493,4.241 L16.348,4.505 C14.7391516,7.28646185 11.3944639,8.55075382 8.348,7.529 C9.045,3.694 11.533,1.23 14.775,1.23 L14.775,1.231 Z M8.082,8.099 C8.10189913,8.08983359 8.12068733,8.07842647 8.138,8.065 L8.17,8.076 C11.4379551,9.17258227 15.0284509,7.84435691 16.796,4.885 C17.9014154,6.17665389 19.4497509,7.00842501 21.137,7.217 C21.182,7.433 21.224,7.653 21.257,7.878 C21.2739984,7.99293354 21.358392,8.08639745 21.471,8.115 C21.934,8.232 22.14,9.144 21.984,10.384 C21.884,11.204 21.726,11.995 21.29,12.231 C21.2138826,12.272279 21.160565,12.3458205 21.145,12.431 C20.377,16.445 17.817,19.142 14.774,19.142 C11.731,19.142 9.162,16.436 8.397,12.409 C8.38174805,12.3242577 8.32925469,12.2508404 8.254,12.209 C7.805,11.961 7.645,11.138 7.548,10.367 C7.395,9.132 7.609,8.219 8.081,8.1 L8.082,8.099 Z" id="Path_7555" stroke-width="0.5" fill="#aeb6bf" fill-rule="nonzero"></path>
        <path d="M29.339,30.567 C28.929,25.393 25.339,21.425 19.739,19.952 C19.608245,19.9154056 19.4699764,19.9771852 19.41,20.099 C18.4547415,21.7725705 16.6886958,22.8193553 14.762,22.854 C12.8194256,22.7787729 11.0366461,21.7575873 9.989,20.12 C9.92280811,20.0089036 9.79105501,19.9550602 9.666,19.988 C4.144,21.488 0.606,25.443 0.199,30.569 L0.159,31.153 C0.146734311,31.3585161 0.220641431,31.5598516 0.362960228,31.7086222 C0.505279025,31.8573928 0.703142241,31.9401479 0.909,31.937 C5.43932218,32.431232 9.9938289,32.670609 14.551,32.654 L15,32.654 C19.5528475,32.6706234 24.1030285,32.4312456 28.629,31.937 C28.8373625,31.9389678 29.0370266,31.8535844 29.1795407,31.7015694 C29.3220547,31.5495544 29.3943924,31.3448025 29.379,31.137 L29.339,30.567 Z M28.556,31.367 C19.3889097,32.3175742 10.1480903,32.3175742 0.981,31.367 C0.732,31.335 0.732,31.278 0.732,31.174 L0.771,30.612 C1.153,25.803 4.452,22.073 9.614,20.599 C10.7659004,22.325176 12.6873063,23.3810534 14.762,23.428 C16.82639,23.4152107 18.7358234,22.330598 19.804,20.564 C25.038,22.016 28.382,25.758 28.767,30.609 L28.806,31.153 C28.8,31.279 28.8,31.336 28.556,31.368 L28.556,31.367 Z" id="Path_7556" stroke-width="0.5" fill="#aeb6bf" fill-rule="nonzero"></path>
        <path d="M9.294,12.082 L13.209,12.082 C13.3248221,12.0824047 13.4294535,12.0129137 13.474,11.906 L14.462,9.541 L15.076,9.541 L16.062,11.906 C16.1068108,12.0132835 16.2117341,12.083101 16.328,12.0830044 L20.244,12.0830044 C20.3783639,12.0833763 20.4948726,11.9901693 20.524,11.859 L21.099,9.318 C21.1180911,9.23284274 21.0975387,9.14362206 21.0431158,9.07539907 C20.9886929,9.00717608 20.9062705,8.96731045 20.819,8.96699964 L8.719,8.96699964 C8.6315945,8.9669309 8.54892131,9.00669626 8.49441453,9.07502441 C8.43990774,9.14335256 8.41950885,9.23279542 8.439,9.318 L9.013,11.859 C9.04294908,11.9899267 9.1596928,12.0825739 9.294,12.082 Z M20.459,9.54 L20.014,11.507 L16.514,11.507 L15.693,9.54 L20.459,9.54 Z M13.839,9.54 L13.018,11.507 L9.523,11.507 L9.079,9.54 L13.839,9.54 Z" id="Path_7557" stroke-width="0.2" fill="#aeb6bf" fill-rule="nonzero"></path>
        <polyline id="Path_7558" stroke-width="0.8" stroke-linecap="round" stroke-linejoin="round" points="12.505 15.57 14.62 15.445 16.656 15.667"></polyline>
    </g>
    <g id="Group_5021" transform="translate(29.000000, 944.000000)">
                <g id="Group_5019" transform="translate(0.740000, 2.395000)" fill="#aeb6bf" fill-rule="nonzero">
                    <path d="M25.626,28.216 C25.249,23.466 22.934,20.873 17.883,19.545 C17.7504142,19.5091052 17.6126972,19.582117 17.568,19.712 C17.568,19.712 17.55,19.76 17.521,19.827 C17.2517471,19.2176547 17.0505304,18.5804682 16.921,17.927 C19.926,18.968 20.593,17.689 20.688,17.627 C20.728061,17.6027886 20.7608735,17.5682491 20.783,17.527 C21.703,15.782 21.41,13.776 21.41,11.627 C21.41,5.001 18.94,0.005 13.327,0.005 C7.714,0.005 4.362,5.005 4.362,11.653 C4.28133801,13.6813671 4.69811928,15.6986708 5.576,17.529 C5.59973915,17.5707157 5.63428432,17.6052609 5.676,17.629 C6.18307545,18.0334786 6.79943297,18.2772358 7.446,18.329 C8.22919252,18.3835946 9.01387942,18.2462916 9.732,17.929 C9.59533822,18.6360794 9.37198536,19.3236032 9.067,19.976 C9.009,19.848 8.976,19.759 8.967,19.739 C8.92025977,19.6093663 8.78225537,19.5368923 8.649,19.572 C3.615,20.94 1.408,23.442 1.03,28.212 L0.993,28.747 C0.981565542,28.9353838 1.04917013,29.1200085 1.17955167,29.2564631 C1.30993321,29.3929178 1.49129103,29.468852 1.68,29.466 C5.47757463,29.9194815 9.29948118,30.1385631 13.124,30.122 L13.536,30.122 C17.3565201,30.1382222 21.1744133,29.9191409 24.968,29.466 C25.159593,29.4677225 25.3430994,29.3888898 25.4737439,29.2487369 C25.6043885,29.108584 25.6701563,28.9200004 25.655,28.729 L25.626,28.216 Z M10.543,17.224 C10.5259052,17.2060383 10.5063829,17.190555 10.485,17.178 C8.8741561,15.710736 7.81849649,13.7329194 7.496,11.578 C7.48181352,11.5007675 7.43373408,11.4339702 7.365,11.396 C6.954,11.169 6.807,10.415 6.718,9.708 C6.577,8.576 6.773,7.74 7.158,7.637 L7.337,7.625 C10.2023779,8.56091091 13.3403361,7.47335798 15.012,4.965 C15.461,6.929 16.912,10.565 19.135,11.789 C18.7853995,13.872153 17.7406602,15.7755242 16.171,17.189 C16.1554153,17.1994208 16.1409988,17.2114905 16.128,17.225 C14.5286127,18.6235489 12.1413873,18.6235489 10.542,17.225 L10.543,17.224 Z M6.01,17.207 C5.2042542,15.4588796 4.82158866,13.5455519 4.893,11.622 C4.893,5.296 8.018,0.522 13.332,0.522 C18.646,0.522 20.888,5.293 20.888,11.644 C20.888,13.673 21.182,15.591 20.357,17.206 C19.994,17.406 19.472,18.348 16.822,17.317 L16.822,17.317 C18.3458385,15.7934065 19.3498708,13.827687 19.691,11.7 C19.7132529,11.5830643 19.6541911,11.465761 19.547,11.414 C17.129,10.251 15.586,5.724 15.408,4.2 C15.394557,4.0862825 15.3093374,3.9941968 15.197,3.972 C15.084969,3.94909979 14.9710763,4.00179036 14.916,4.102 L14.783,4.344 C13.3098192,6.89127602 10.246981,8.04935163 7.457,7.114 C7.4249022,7.10289161 7.3908711,7.09846757 7.357,7.101 L7.079,7.124 C6.344,7.311 6.015,8.304 6.2,9.778 C6.19429007,10.527884 6.48129667,11.2504231 7,11.792 C7.35107343,13.883214 8.34516571,15.8130253 9.844,17.313 C9.844,17.32 9.844,17.324 9.844,17.332 C7.287,18.342 6.392,17.404 6.01,17.204 L6.01,17.207 Z M9.4,20.489 C9.85202509,19.6169232 10.1612843,18.678004 10.316,17.708 C12.0642804,19.1617252 14.6007196,19.1617252 16.349,17.708 C16.4999579,18.6474098 16.7943949,19.5580395 17.222,20.408 C16.4488619,21.8450757 14.9583211,22.7509845 13.3266566,22.7754802 C11.6949921,22.7999759 10.1779288,21.9392194 9.362,20.526 C9.374,20.514 9.39,20.504 9.4,20.489 Z M24.909,28.949 C17.2155149,29.8189565 9.44848509,29.8189565 1.755,28.949 C1.527,28.919 1.527,28.867 1.527,28.771 L1.563,28.257 C1.915,23.822 3.951,21.457 8.574,20.147 C9.35360348,22.0618364 11.2183743,23.3109821 13.2858173,23.3032842 C15.3532603,23.2955863 17.2086774,22.0325888 17.974,20.112 C22.679,21.404 24.751,23.777 25.106,28.255 L25.142,28.755 C25.136,28.867 25.136,28.919 24.909,28.949 L24.909,28.949 Z" id="Path_7559" stroke="#aeb6bf" stroke-width="0.5"></path>
                    <path d="M13.331,23.991 C12.8587965,23.991 12.476,24.3737965 12.476,24.846 C12.476,25.3182035 12.8587965,25.701 13.331,25.701 C13.8032035,25.701 14.186,25.3182035 14.186,24.846 C14.1854489,24.374025 13.802975,23.9915511 13.331,23.991 L13.331,23.991 Z" id="Path_7560"></path>
                    <path d="M13.331,26.794 C12.8587965,26.794 12.476,27.1767965 12.476,27.649 C12.476,28.1212035 12.8587965,28.504 13.331,28.504 C13.8032035,28.504 14.186,28.1212035 14.186,27.649 C14.1854489,27.177025 13.802975,26.7945511 13.331,26.794 L13.331,26.794 Z" id="Path_7561"></path>
                </g>
                <path d="M12.864,2.727 C13.371,0.797 15.29,0.186 17.219,0.693 C19.160676,1.292545 20.280566,3.320275 19.754,5.283" id="Path_7562" stroke="#aeb6bf" stroke-width="0.8" stroke-linecap="round"></path>
                <g id="Group_5020" transform="translate(8.992000, 11.556000)" stroke="#aeb6bf" stroke-width="0.7">
                    <ellipse id="Ellipse_111" cx="1.971" cy="1.498" rx="1.971" ry="1.498"></ellipse>
                    <ellipse id="Ellipse_112" cx="7.254" cy="1.498" rx="2.05" ry="1.498"></ellipse>
                </g>
            </g>
    </g>
    </svg>