<?xml version="1.0" encoding="UTF-8"?>
<svg width="175px" height="1579px" viewBox="0 0 175 1579" version="1.1" xmlns="http://www.w3.org/2000/svg" xmlns:xlink="http://www.w3.org/1999/xlink">

    <!-- Generator: Sketch 59.1 (86144) - https://sketch.com -->
    <title>icons_bu (1)</title>
    <desc>Created with Sketch.</desc>
    <g id="Page-1" stroke="none" stroke-width="1" fill="none" fill-rule="evenodd">
        <g id="icons_bu-(1)">
 <g id="plans-bu" transform="translate(1.000000, 259.000000)">
                <path d="M15.967,21.747 C18.31,19.189 21.291,14.287 21.291,5.76 C21.291,5.334 21.081,5.121 20.658,4.908 C20.658,4.908 14.268,3.842 11.071,0.218 C10.9022218,0.0556487787 10.669566,-0.0225147433 10.437,0.005 C10.226,0.005 10.015,0.005 10.015,0.219 C7.6374782,2.66289378 4.46373783,4.17509398 1.068,4.482 L0.646,4.482 C0.471303912,4.45754428 0.295296213,4.51683109 0.171,4.642 C0.0463487928,4.76822465 -0.0124266264,4.94529022 0.012,5.121 C-0.072038558,7.9301317 0.284276444,10.7351001 1.068,13.434 C2.057,18.743 5.676,23.168 10.655,25.157 L11.077,25.157 C12.9434824,24.403983 14.6152677,23.2381777 15.967,21.747 Z" id="Path" stroke="#20385B" stroke-width="1.584"></path>
                <path d="M15.353,8.84 C15.0978527,8.6170179 14.7171473,8.6170179 14.462,8.84 L9.557,13.66 L7.328,11.688 C7.07784747,11.4598968 6.69320565,11.4664756 6.451,11.703 C6.2109432,11.9379648 6.20470006,12.3223635 6.437,12.565 L9.112,14.975 C9.334,15.195 9.334,15.195 9.557,15.195 C9.78,15.195 10.003,15.195 10.003,14.975 L15.353,9.716 C15.5793112,9.46784997 15.5793112,9.08815003 15.353,8.84 L15.353,8.84 Z" id="Path" stroke="#253858" stroke-width="0.785" fill="#253858" fill-rule="nonzero"></path>
            </g>
        </g>
    </g>
    </svg>